<svg xmlns="http://www.w3.org/2000/svg" style="display: none;">
  
    <symbol id="icon-angle-double-left" viewBox="0 0 512 512">
      <path d="m289 393c0 3-1 5-3 7l-14 14c-2 2-4 3-7 3c-2 0-5-1-6-3l-134-133c-1-2-2-4-2-7c0-2 1-4 2-6l134-133c1-2 4-3 6-3c3 0 5 1 7 3l14 14c2 2 3 4 3 6c0 3-1 5-3 7l-112 112l112 113c2 1 3 4 3 6z m110 0c0 3-1 5-3 7l-15 14c-1 2-4 3-6 3c-3 0-5-1-7-3l-133-133c-2-2-3-4-3-7c0-2 1-4 3-6l133-133c2-2 4-3 7-3c2 0 5 1 6 3l15 14c2 2 3 4 3 6c0 3-1 5-3 7l-113 112l113 113c2 1 3 4 3 6z"/>
    </symbol>
  
    <symbol id="icon-angle-double-right" viewBox="0 0 512 512">
      <path d="m280 274c0 3-1 5-3 7l-133 133c-2 2-4 3-7 3c-2 0-5-1-6-3l-15-14c-2-2-3-4-3-7c0-2 1-5 3-6l113-113l-113-112c-2-2-3-4-3-7c0-2 1-4 3-6l15-14c1-2 4-3 6-3c3 0 5 1 7 3l133 133c2 2 3 4 3 6z m109 0c0 3-1 5-2 7l-134 133c-1 2-4 3-6 3c-3 0-5-1-7-3l-14-14c-2-2-3-4-3-7c0-2 1-5 3-6l112-113l-112-112c-2-2-3-4-3-7c0-2 1-4 3-6l14-14c2-2 4-3 7-3c2 0 5 1 6 3l134 133c1 2 2 4 2 6z"/>
    </symbol>
  
    <symbol id="icon-angle-double-down" viewBox="0 0 512 512">
      <path d="m399 247c0 2-1 5-3 6l-133 134c-2 1-5 2-7 2c-2 0-5-1-7-2l-133-134c-2-1-3-4-3-6c0-3 1-5 3-7l15-14c1-2 4-3 6-3c3 0 5 1 7 3l112 112l112-112c2-2 4-3 7-3c2 0 5 1 6 3l15 14c2 2 3 4 3 7z m0-110c0 3-1 5-3 7l-133 133c-2 2-5 3-7 3c-2 0-5-1-7-3l-133-133c-2-2-3-4-3-7c0-2 1-5 3-6l15-15c1-2 4-3 6-3c3 0 5 1 7 3l112 113l112-113c2-2 4-3 7-3c2 0 5 1 6 3l15 15c2 1 3 4 3 6z"/>
    </symbol>
  
    <symbol id="icon-angle-double-up" viewBox="0 0 512 512">
      <path d="m399 375c0 2-1 5-3 6l-15 15c-1 2-4 3-6 3c-3 0-5-1-7-3l-112-113l-112 113c-2 2-4 3-7 3c-2 0-5-1-6-3l-15-15c-2-1-3-4-3-6c0-3 1-5 3-7l133-133c2-2 5-3 7-3c2 0 5 1 7 3l133 133c2 2 3 4 3 7z m0-110c0 3-1 5-3 7l-15 14c-1 2-4 3-6 3c-3 0-5-1-7-3l-112-112l-112 112c-2 2-4 3-7 3c-2 0-5-1-6-3l-15-14c-2-2-3-4-3-7c0-2 1-5 3-6l133-134c2-1 5-2 7-2c2 0 5 1 7 2l133 134c2 1 3 4 3 6z"/>
    </symbol>
  
    <symbol id="icon-angle-down" viewBox="0 0 512 512">
      <path d="m399 210c0 3-1 5-3 7l-133 133c-2 2-5 3-7 3c-2 0-5-1-7-3l-133-133c-2-2-3-4-3-7c0-2 1-4 3-6l15-15c1-1 4-2 6-2c3 0 5 1 7 2l112 113l112-113c2-1 4-2 7-2c2 0 5 1 6 2l15 15c2 2 3 4 3 6z"/>
    </symbol>
  
    <symbol id="icon-angle-left" viewBox="0 0 512 512">
      <path d="m344 155c0 3-1 5-3 7l-112 112l112 113c2 1 3 4 3 6c0 3-1 5-3 7l-14 14c-2 2-5 3-7 3c-2 0-5-1-7-3l-133-133c-2-2-3-4-3-7c0-2 1-4 3-6l133-133c2-2 5-3 7-3c2 0 5 1 7 3l14 14c2 2 3 4 3 6z"/>
    </symbol>
  
    <symbol id="icon-angle-right" viewBox="0 0 512 512">
      <path d="m335 274c0 3-1 5-3 7l-133 133c-2 2-5 3-7 3c-2 0-5-1-7-3l-14-14c-2-2-3-4-3-7c0-2 1-5 3-6l112-113l-112-112c-2-2-3-4-3-7c0-2 1-4 3-6l14-14c2-2 5-3 7-3c2 0 5 1 7 3l133 133c2 2 3 4 3 6z"/>
    </symbol>
  
    <symbol id="icon-angle-up" viewBox="0 0 512 512">
      <path d="m399 338c0 3-1 5-3 7l-15 14c-1 2-4 3-6 3c-3 0-5-1-7-3l-112-112l-112 112c-2 2-4 3-7 3c-2 0-5-1-6-3l-15-14c-2-2-3-4-3-7c0-2 1-4 3-6l133-133c2-2 5-3 7-3c2 0 5 1 7 3l133 133c2 2 3 4 3 6z"/>
    </symbol>
  
    <symbol id="icon-caret-down" viewBox="0 0 512 512">
      <path d="m402 311c0 5-2 9-5 13l-128 128c-4 3-8 5-13 5c-5 0-9-2-13-5l-128-128c-3-4-5-8-5-13c0-5 2-9 5-13c4-4 8-5 13-5l256 0c5 0 9 1 13 5c3 4 5 8 5 13z"/>
    </symbol>
  
    <symbol id="icon-caret-down-two" viewBox="0 0 512 512">
      <path d="m402 201c0 5-2 9-5 13l-128 128c-4 4-8 5-13 5c-5 0-9-1-13-5l-128-128c-3-4-5-8-5-13c0-5 2-9 5-13c4-3 8-5 13-5l256 0c5 0 9 2 13 5c3 4 5 8 5 13z"/>
    </symbol>
  
    <symbol id="icon-caret-left" viewBox="0 0 512 512">
      <path d="m347 128l0 256c0 5-1 9-5 13c-4 3-8 5-13 5c-5 0-9-2-13-5l-128-128c-3-4-5-8-5-13c0-5 2-9 5-13l128-128c4-3 8-5 13-5c5 0 9 2 13 5c4 4 5 8 5 13z"/>
    </symbol>
  
    <symbol id="icon-caret-right" viewBox="0 0 512 512">
      <path d="m329 256c0 5-2 9-5 13l-128 128c-4 3-8 5-13 5c-5 0-9-2-13-5c-4-4-5-8-5-13l0-256c0-5 1-9 5-13c4-3 8-5 13-5c5 0 9 2 13 5l128 128c3 4 5 8 5 13z"/>
    </symbol>
  
    <symbol id="icon-caret-up" viewBox="0 0 512 512">
      <path d="m402 201c0 5-2 9-5 13c-4 4-8 5-13 5l-256 0c-5 0-9-1-13-5c-3-4-5-8-5-13c0-5 2-9 5-13l128-128c4-3 8-5 13-5c5 0 9 2 13 5l128 128c3 4 5 8 5 13z"/>
    </symbol>
  
    <symbol id="icon-caret-up-down" viewBox="0 0 512 512">
      <path d="m402 311c0 5-2 9-5 13l-128 128c-4 3-8 5-13 5c-5 0-9-2-13-5l-128-128c-3-4-5-8-5-13c0-5 2-9 5-13c4-4 8-5 13-5l256 0c5 0 9 1 13 5c3 4 5 8 5 13z m0-110c0 5-2 9-5 13c-4 4-8 5-13 5l-256 0c-5 0-9-1-13-5c-3-4-5-8-5-13c0-5 2-9 5-13l128-128c4-3 8-5 13-5c5 0 9 2 13 5l128 128c3 4 5 8 5 13z"/>
    </symbol>
  
    <symbol id="icon-caret-up-two" viewBox="0 0 512 512">
      <path d="m402 347c0 5-2 10-5 13c-4 4-8 6-13 6l-256 0c-5 0-9-2-13-6c-3-3-5-8-5-13c0-5 2-9 5-12l128-128c4-4 8-6 13-6c5 0 9 2 13 6l128 128c3 3 5 7 5 12z"/>
    </symbol>
  
    <symbol id="icon-chevron-down" viewBox="0 0 512 512">
      <path d="m479 201c0 10-4 19-11 26l-186 186c-7 7-16 11-26 11c-10 0-19-4-26-11l-186-186c-7-7-11-16-11-26c0-10 4-19 11-26l21-21c8-7 17-11 26-11c11 0 19 4 26 11l139 139l139-139c7-7 15-11 26-11c9 0 18 4 26 11l21 21c7 8 11 16 11 26z"/>
    </symbol>
  
    <symbol id="icon-chevron-left" viewBox="0 0 512 512">
      <path d="m303 449l-186-186c-7-7-10-15-10-25c0-11 3-19 10-26l186-186c7-7 16-11 26-11c10 0 19 4 26 11l22 21c7 7 10 16 10 26c0 10-3 19-10 26l-139 139l139 138c7 8 10 16 10 26c0 10-3 19-10 26l-22 21c-7 7-16 11-26 11c-10 0-19-4-26-11z"/>
    </symbol>
  
    <symbol id="icon-chevron-right" viewBox="0 0 512 512">
      <path d="m405 238c0 10-3 18-10 26l-186 186c-7 7-16 10-26 10c-10 0-19-3-26-10l-22-22c-7-7-10-16-10-26c0-10 3-18 10-25l139-139l-139-139c-7-7-10-16-10-26c0-10 3-19 10-26l22-21c7-7 16-11 26-11c10 0 19 4 26 11l186 186c7 7 10 16 10 26z"/>
    </symbol>
  
    <symbol id="icon-chevron-up" viewBox="0 0 512 512">
      <path d="m479 347c0 11-4 19-11 26l-21 22c-8 7-16 10-26 10c-11 0-19-3-26-10l-139-139l-139 139c-7 7-15 10-26 10c-10 0-18-3-25-10l-22-22c-7-7-11-15-11-26c0-10 4-18 11-26l186-186c7-7 16-10 26-10c10 0 19 3 26 10l186 186c7 8 11 16 11 26z"/>
    </symbol>
  
    <symbol id="icon-home" viewBox="0 0 512 512">
      <path d="m421 283l0 138c0 5-2 9-6 12c-3 4-8 6-13 6l-109 0l0-110l-74 0l0 110l-109 0c-5 0-10-2-13-6c-4-3-6-7-6-12l0-138c0 0 0 0 1 0c0-1 0-1 0-1l164-136l164 136c0 0 1 1 1 1z m63-19l-17 21c-2 2-4 3-6 3l-1 0c-3 0-5-1-6-2l-198-165l-198 165c-2 2-4 2-7 2c-2 0-4-1-6-3l-17-21c-2-2-2-4-2-7c0-3 1-5 3-6l205-171c6-5 14-8 22-8c8 0 16 3 22 8l69 58l0-56c0-2 1-5 3-6c2-2 4-3 7-3l54 0c3 0 5 1 7 3c2 1 3 4 3 6l0 117l62 52c2 1 3 3 3 6c0 3 0 5-2 7z"/>
    </symbol>
  
    <symbol id="icon-unlock" viewBox="0 0 512 512">
      <path d="m393 219c8 0 14 3 20 8c5 6 8 12 8 20l0 164c0 8-3 15-8 20c-6 5-12 8-20 8l-274 0c-8 0-14-3-20-8c-5-5-8-12-8-20l0-164c0-8 3-14 8-20c6-5 12-8 20-8l9 0l0-91c0-35 13-65 38-90c25-25 55-38 90-38c35 0 65 13 90 38c25 25 38 55 38 90c0 5-2 9-5 13c-4 3-8 5-13 5l-19 0c-5 0-9-2-12-5c-4-4-6-8-6-13c0-20-7-37-21-52c-15-14-32-21-52-21c-20 0-37 7-52 21c-14 15-21 32-21 52l0 91z"/>
    </symbol>
  
    <symbol id="icon-unlock-2" viewBox="0 0 512 512">
      <path d="m494 165l0 73c0 5-2 9-6 13c-3 3-8 5-13 5l-18 0c-5 0-9-2-13-5c-3-4-5-8-5-13l0-73c0-21-7-38-22-52c-14-14-31-22-51-22c-20 0-38 8-52 22c-14 14-21 31-21 52l0 54l27 0c8 0 14 3 19 8c6 6 8 12 8 20l0 164c0 8-2 15-8 20c-5 5-11 8-19 8l-274 0c-8 0-14-3-20-8c-5-5-8-12-8-20l0-164c0-8 3-14 8-20c6-5 12-8 20-8l192 0l0-54c0-36 12-66 37-91c25-25 55-37 91-37c35 0 65 12 90 37c25 25 38 55 38 91z"/>
    </symbol>
  
    <symbol id="icon-user" viewBox="0 0 512 512">
      <path d="m457 401c0 23-7 41-21 55c-14 13-32 19-55 19l-250 0c-23 0-41-6-55-19c-14-14-21-32-21-55c0-10 0-20 1-29c1-10 2-20 4-31c2-11 4-22 7-31c3-10 8-19 13-28c5-9 11-17 17-23c7-7 15-12 25-16c9-3 20-5 32-5c1 0 5 2 12 6c6 4 13 9 21 14c8 5 18 9 31 13c13 4 25 6 38 6c13 0 25-2 38-6c13-4 23-8 31-13c8-5 15-10 21-14c7-4 11-6 12-6c12 0 23 2 32 5c10 4 18 9 25 16c6 6 12 14 17 23c5 9 10 18 13 28c3 9 5 20 7 31c2 11 3 21 4 31c1 9 1 19 1 29z m-91-255c0 31-11 56-32 78c-22 21-48 32-78 32c-30 0-56-11-78-32c-21-22-32-47-32-78c0-30 11-56 32-77c22-22 48-32 78-32c30 0 56 10 78 32c21 21 32 47 32 77z"/>
    </symbol>
  
    <symbol id="icon-question" viewBox="0 0 512 512">
      <path d="m311 359l0 68c0 3-1 6-4 8c-2 3-5 4-8 4l-68 0c-3 0-6-1-8-4c-2-2-4-5-4-8l0-68c0-3 2-6 4-8c2-2 5-4 8-4l68 0c3 0 6 2 8 4c3 2 4 5 4 8z m90-172c0 11-1 20-4 29c-3 9-7 17-10 22c-4 6-9 11-16 17c-7 6-12 10-16 13c-5 2-10 6-18 10c-8 4-14 10-19 18c-6 8-8 15-8 19c0 4-1 7-4 10c-2 3-5 4-8 4l-68 0c-3 0-6-2-8-5c-2-4-3-7-3-11l0-13c0-16 7-30 19-44c12-14 26-25 41-31c11-6 19-11 24-16c5-6 7-13 7-22c0-8-4-15-13-21c-9-6-19-9-31-9c-12 0-23 2-31 8c-7 5-17 16-30 33c-3 3-6 4-9 4c-3 0-5 0-7-2l-47-36c-3-2-4-4-5-7c0-3 0-5 2-8c30-51 75-76 132-76c16 0 31 3 46 9c16 6 30 14 42 24c13 10 23 22 30 36c8 15 12 30 12 45z"/>
    </symbol>
  
    <symbol id="icon-search-find" viewBox="0 0 512 512">
      <path d="m347 238c0-36-12-66-37-91c-25-25-55-37-91-37c-35 0-65 12-90 37c-25 25-38 55-38 91c0 35 13 65 38 90c25 25 55 38 90 38c36 0 66-13 91-38c25-25 37-55 37-90z m147 237c0 10-4 19-11 26c-7 7-16 11-26 11c-10 0-19-4-26-11l-98-98c-34 24-72 36-114 36c-27 0-53-5-78-16c-25-11-46-25-64-43c-18-18-32-39-43-64c-10-25-16-51-16-78c0-28 6-54 16-78c11-25 25-47 43-65c18-18 39-32 64-43c25-10 51-15 78-15c28 0 54 5 79 15c24 11 46 25 64 43c18 18 32 40 43 65c10 24 16 50 16 78c0 42-12 80-36 114l98 98c7 7 11 15 11 25z"/>
    </symbol>
  
    <symbol id="icon-plus" viewBox="0 0 512 512">
      <path d="m457 210l0 55c0 8-3 14-8 20c-5 5-12 8-19 8l-119 0l0 118c0 8-3 15-8 20c-5 5-12 8-20 8l-54 0c-8 0-15-3-20-8c-5-5-8-12-8-20l0-118l-119 0c-7 0-14-3-19-8c-5-6-8-12-8-20l0-55c0-7 3-14 8-19c5-5 12-8 19-8l119 0l0-119c0-8 3-14 8-19c5-6 12-8 20-8l54 0c8 0 15 2 20 8c5 5 8 11 8 19l0 119l119 0c7 0 14 3 19 8c5 5 8 12 8 19z"/>
    </symbol>
  
    <symbol id="icon-ellipsis-2" viewBox="0 0 512 512">
      <path d="m165 210l0 55c0 8-3 14-8 20c-6 5-12 8-20 8l-55 0c-7 0-14-3-19-8c-5-6-8-12-8-20l0-55c0-7 3-14 8-19c5-5 12-8 19-8l55 0c8 0 14 3 20 8c5 5 8 12 8 19z m146 0l0 55c0 8-3 14-8 20c-5 5-12 8-20 8l-54 0c-8 0-15-3-20-8c-5-6-8-12-8-20l0-55c0-7 3-14 8-19c5-5 12-8 20-8l54 0c8 0 15 3 20 8c5 5 8 12 8 19z m146 0l0 55c0 8-3 14-8 20c-5 5-12 8-19 8l-55 0c-8 0-14-3-20-8c-5-6-8-12-8-20l0-55c0-7 3-14 8-19c6-5 12-8 20-8l55 0c7 0 14 3 19 8c5 5 8 12 8 19z"/>
    </symbol>
  
    <symbol id="icon-ellipsis" viewBox="0 0 512 512">
      <path d="m311 357l0 54c0 8-3 15-8 20c-5 5-12 8-20 8l-54 0c-8 0-15-3-20-8c-5-5-8-12-8-20l0-54c0-8 3-15 8-20c5-5 12-8 20-8l54 0c8 0 15 3 20 8c5 5 8 12 8 20z m0-147l0 55c0 8-3 14-8 20c-5 5-12 8-20 8l-54 0c-8 0-15-3-20-8c-5-6-8-12-8-20l0-55c0-7 3-14 8-19c5-5 12-8 20-8l54 0c8 0 15 3 20 8c5 5 8 12 8 19z m0-146l0 55c0 7-3 14-8 19c-5 6-12 8-20 8l-54 0c-8 0-15-2-20-8c-5-5-8-12-8-19l0-55c0-8 3-14 8-19c5-6 12-8 20-8l54 0c8 0 15 2 20 8c5 5 8 11 8 19z"/>
    </symbol>
  
    <symbol id="icon-plus-square-1" viewBox="0 0 512 512">
      <path d="m402 274l0-36c0-5-2-10-5-13c-4-4-8-6-13-6l-91 0l0-91c0-5-2-9-6-13c-3-3-8-5-13-5l-36 0c-5 0-10 2-13 5c-4 4-6 8-6 13l0 91l-91 0c-5 0-9 2-13 6c-3 3-5 8-5 13l0 36c0 5 2 10 5 13c4 4 8 6 13 6l91 0l0 91c0 5 2 9 6 13c3 3 8 5 13 5l36 0c5 0 10-2 13-5c4-4 6-8 6-13l0-91l91 0c5 0 9-2 13-6c3-3 5-8 5-13z m73-155l0 274c0 23-8 42-24 58c-16 16-35 24-58 24l-274 0c-23 0-42-8-58-24c-16-16-24-35-24-58l0-274c0-23 8-42 24-58c16-16 35-24 58-24l274 0c23 0 42 8 58 24c16 16 24 35 24 58z"/>
    </symbol>
  
    <symbol id="icon-lock" viewBox="0 0 512 512">
      <path d="m183 219l146 0l0-54c0-21-7-38-21-52c-15-14-32-22-52-22c-20 0-37 8-52 22c-14 14-21 31-21 52z m238 28l0 164c0 8-3 15-8 20c-6 5-12 8-20 8l-274 0c-8 0-14-3-20-8c-5-5-8-12-8-20l0-164c0-8 3-14 8-20c6-5 12-8 20-8l9 0l0-54c0-35 13-66 38-91c25-25 55-37 90-37c35 0 65 12 90 37c25 25 38 56 38 91l0 54l9 0c8 0 14 3 20 8c5 6 8 12 8 20z"/>
    </symbol>
  
    <symbol id="icon-minus" viewBox="0 0 512 512">
      <path d="m457 210l0 55c0 8-3 14-8 20c-5 5-12 8-19 8l-348 0c-7 0-14-3-19-8c-5-6-8-12-8-20l0-55c0-7 3-14 8-19c5-5 12-8 19-8l348 0c7 0 14 3 19 8c5 5 8 12 8 19z"/>
    </symbol>
  
    <symbol id="icon-minus-circle" viewBox="0 0 512 512">
      <path d="m384 274l0-36c0-5-2-10-5-13c-4-4-8-6-13-6l-220 0c-5 0-9 2-13 6c-3 3-5 8-5 13l0 36c0 5 2 10 5 13c4 4 8 6 13 6l220 0c5 0 9-2 13-6c3-3 5-8 5-13z m91-18c0 40-9 77-29 110c-20 34-46 60-80 80c-33 20-70 29-110 29c-40 0-77-9-110-29c-34-20-60-46-80-80c-20-33-29-70-29-110c0-40 9-77 29-110c20-34 46-60 80-80c33-20 70-29 110-29c40 0 77 9 110 29c34 20 60 46 80 80c20 33 29 70 29 110z"/>
    </symbol>
  
    <symbol id="icon-minus-square" viewBox="0 0 512 512">
      <path d="m402 274l0-36c0-5-2-10-5-13c-4-4-8-6-13-6l-256 0c-5 0-9 2-13 6c-3 3-5 8-5 13l0 36c0 5 2 10 5 13c4 4 8 6 13 6l256 0c5 0 9-2 13-6c3-3 5-8 5-13z m73-155l0 274c0 23-8 42-24 58c-16 16-35 24-58 24l-274 0c-23 0-42-8-58-24c-16-16-24-35-24-58l0-274c0-23 8-42 24-58c16-16 35-24 58-24l274 0c23 0 42 8 58 24c16 16 24 35 24 58z"/>
    </symbol>
  
    <symbol id="icon-minus-line" viewBox="0 0 512 512">
      <path d="m384 229l0 18c0 3-1 5-3 6c-1 2-3 3-6 3l-238 0c-3 0-5-1-6-3c-2-1-3-3-3-6l0-18c0-3 1-5 3-7c1-2 3-3 6-3l238 0c3 0 5 1 6 3c2 2 3 4 3 7z m37 128l0-238c0-13-5-23-14-32c-9-9-20-14-32-14l-238 0c-12 0-23 5-32 14c-9 9-14 19-14 32l0 238c0 12 5 23 14 32c9 9 20 13 32 13l238 0c12 0 23-4 32-13c9-9 14-20 14-32z m36-238l0 238c0 22-8 42-24 58c-16 16-35 24-58 24l-238 0c-23 0-42-8-58-24c-16-16-24-36-24-58l0-238c0-23 8-42 24-58c16-16 35-24 58-24l238 0c23 0 42 8 58 24c16 16 24 35 24 58z"/>
    </symbol>
  
    <symbol id="icon-paper-clip" viewBox="0 0 512 512">
      <path d="m456 396c0 22-8 41-23 56c-15 15-33 22-56 22c-25 0-48-9-67-28l-222-222c-21-22-32-48-32-77c0-31 10-56 31-78c21-21 47-31 77-31c30 0 56 10 78 32l173 173c2 2 3 4 3 6c0 3-3 8-9 14c-6 6-10 8-13 8c-2 0-5-1-7-2l-173-174c-15-15-32-22-51-22c-21 0-38 7-52 22c-13 14-20 31-20 51c0 20 7 38 21 52l222 222c12 12 26 18 41 18c13 0 23-4 31-12c8-8 12-18 12-30c0-16-6-30-18-42l-166-166c-5-4-11-7-17-7c-6 0-11 2-14 6c-4 3-6 8-6 14c0 6 3 11 8 16l117 118c2 1 3 4 3 6c0 3-3 7-9 13c-6 6-11 9-14 9c-2 0-4-1-6-3l-117-117c-12-11-18-26-18-42c0-16 5-29 16-40c11-11 24-16 40-16c17 0 31 6 42 18l166 166c19 18 29 41 29 67z"/>
    </symbol>
  
    <symbol id="icon-pencil" viewBox="0 0 512 512">
      <path d="m140 439l26-26l-67-67l-26 26l0 30l37 0l0 37z m150-265c0-4-2-7-7-7c-1 0-3 1-4 2l-155 155c-2 2-2 3-2 5c0 4 2 6 6 6c2 0 4 0 5-2l155-154c1-2 2-3 2-5z m-16-55l119 119l-238 237l-118 0l0-118z m195 27c0 10-3 19-10 26l-48 47l-118-118l47-48c7-7 15-10 26-10c10 0 18 3 26 10l67 67c7 8 10 16 10 26z"/>
    </symbol>
  
    <symbol id="icon-plus-square" viewBox="0 0 512 512">
      <path d="m347 265l0 18c0 3 0 5-2 7c-2 2-4 3-7 3l-64 0l0 64c0 2-1 4-2 6c-2 2-4 3-7 3l-18 0c-3 0-5-1-7-3c-1-2-2-4-2-6l0-64l-64 0c-3 0-5-1-7-3c-2-2-2-4-2-7l0-18c0-3 0-5 2-6c2-2 4-3 7-3l64 0l0-64c0-3 1-5 2-7c2-1 4-2 7-2l18 0c3 0 5 1 7 2c1 2 2 4 2 7l0 64l64 0c3 0 5 1 7 3c2 1 2 3 2 6z m37 110l0-201c0-8-3-14-8-20c-5-5-12-8-19-8l-202 0c-7 0-14 3-19 8c-5 6-8 12-8 20l0 201c0 7 3 14 8 19c5 6 12 8 19 8l202 0c7 0 14-2 19-8c5-5 8-12 8-19z m37-201l0 201c0 17-7 32-19 45c-13 13-28 19-45 19l-202 0c-17 0-32-6-45-19c-12-13-19-28-19-45l0-201c0-18 7-33 19-46c13-12 28-18 45-18l202 0c17 0 32 6 45 18c12 13 19 28 19 46z"/>
    </symbol>
  
    <symbol id="icon-plus-circle" viewBox="0 0 512 512">
      <path d="m384 274l0-36c0-5-2-10-5-13c-4-4-8-6-13-6l-73 0l0-73c0-5-2-9-6-13c-3-3-8-5-13-5l-36 0c-5 0-10 2-13 5c-4 4-6 8-6 13l0 73l-73 0c-5 0-9 2-13 6c-3 3-5 8-5 13l0 36c0 5 2 10 5 13c4 4 8 6 13 6l73 0l0 73c0 5 2 9 6 13c3 3 8 5 13 5l36 0c5 0 10-2 13-5c4-4 6-8 6-13l0-73l73 0c5 0 9-2 13-6c3-3 5-8 5-13z m91-18c0 40-9 77-29 110c-20 34-46 60-80 80c-33 20-70 29-110 29c-40 0-77-9-110-29c-34-20-60-46-80-80c-20-33-29-70-29-110c0-40 9-77 29-110c20-34 46-60 80-80c33-20 70-29 110-29c40 0 77 9 110 29c34 20 60 46 80 80c20 33 29 70 29 110z"/>
    </symbol>
  
    <symbol id="icon-pin-map" viewBox="0 0 512 512">
      <path d="m329 183c0-20-7-38-21-52c-15-14-32-21-52-21c-20 0-37 7-52 21c-14 14-21 32-21 52c0 20 7 37 21 52c15 14 32 21 52 21c20 0 37-7 52-21c14-15 21-32 21-52z m73 0c0 21-3 38-9 51l-104 221c-3 6-8 11-14 15c-6 4-12 5-19 5c-7 0-13-1-19-5c-6-4-11-9-14-15l-104-221c-6-13-9-30-9-51c0-41 14-75 43-104c28-28 63-42 103-42c40 0 75 14 103 42c29 29 43 63 43 104z"/>
    </symbol>
  
    <symbol id="icon-pencil-square" viewBox="0 0 512 512">
      <path d="m152 317l43 43l-14 15l-16 0l0-28l-28 0l0-16z m118-112c3 3 3 5-1 9l-83 83c-3 3-6 3-8 1c-3-3-3-6 1-9l83-83c3-3 6-4 8-1z m-78 197l155-155l-82-82l-155 155l0 82z m174-173l26-27c5-5 8-12 8-19c0-8-3-14-8-20l-43-43c-6-5-12-8-20-8c-7 0-14 3-19 8l-27 26z m109-110l0 274c0 23-8 42-24 58c-16 16-35 24-58 24l-274 0c-23 0-42-8-58-24c-16-16-24-35-24-58l0-274c0-23 8-42 24-58c16-16 35-24 58-24l274 0c23 0 42 8 58 24c16 16 24 35 24 58z"/>
    </symbol>
  
    <symbol id="icon-question-1" viewBox="0 0 512 512">
      <path d="m293 393l0-55c0-2-1-5-3-6c-2-2-4-3-7-3l-54 0c-3 0-5 1-7 3c-2 1-3 4-3 6l0 55c0 3 1 5 3 7c2 1 4 2 7 2l54 0c3 0 5-1 7-2c2-2 3-4 3-7z m73-192c0-17-6-32-16-46c-11-15-24-26-40-34c-16-7-32-11-48-11c-47 0-82 20-106 61c-3 4-2 8 2 12l38 28c1 1 3 2 5 2c3 0 6-1 7-4c10-13 19-21 25-26c6-4 15-7 24-7c10 0 18 3 25 8c7 5 11 10 11 17c0 7-2 13-6 17c-4 4-10 9-20 13c-12 5-23 13-33 25c-10 11-15 23-15 35l0 11c0 2 1 5 3 6c2 2 4 3 7 3l54 0c3 0 5-1 7-3c2-1 3-4 3-6c0-4 2-9 6-14c4-6 9-11 15-15c6-3 11-6 14-8c4-2 8-5 13-10c6-4 10-9 13-13c3-5 6-11 8-18c3-7 4-14 4-23z m109 55c0 40-9 77-29 110c-20 34-46 60-80 80c-33 20-70 29-110 29c-40 0-77-9-110-29c-34-20-60-46-80-80c-20-33-29-70-29-110c0-40 9-77 29-110c20-34 46-60 80-80c33-20 70-29 110-29c40 0 77 9 110 29c34 20 60 46 80 80c20 33 29 70 29 110z"/>
    </symbol>
  
    <symbol id="icon-refresh" viewBox="0 0 512 512">
      <path d="m468 302c0 1 0 1 0 2c-12 51-38 92-77 124c-38 32-84 47-136 47c-28 0-55-5-81-15c-26-11-49-26-69-45l-37 37c-4 3-8 5-13 5c-5 0-9-2-13-5c-4-4-5-8-5-13l0-128c0-5 1-9 5-13c4-4 8-5 13-5l128 0c5 0 9 1 13 5c3 4 5 8 5 13c0 5-2 9-5 13l-39 39c13 12 28 22 46 29c17 7 35 10 53 10c26 0 49-6 71-18c23-13 40-30 54-51c2-4 7-15 15-34c1-4 4-6 8-6l55 0c3 0 5 0 7 2c1 2 2 4 2 7z m7-229l0 128c0 5-1 9-5 13c-4 4-8 5-13 5l-128 0c-5 0-9-1-13-5c-3-4-5-8-5-13c0-5 2-9 5-13l40-39c-28-26-62-39-100-39c-26 0-49 6-71 18c-23 13-40 30-54 51c-2 4-7 15-15 34c-1 4-4 6-8 6l-57 0c-3 0-5 0-7-2c-1-2-2-4-2-7l0-2c12-51 38-92 77-124c39-32 85-47 137-47c28 0 55 5 81 15c26 11 50 26 70 45l37-37c4-3 8-5 13-5c5 0 9 2 13 5c4 4 5 8 5 13z"/>
    </symbol>
  
    <symbol id="icon-remove" viewBox="0 0 512 512">
      <path d="m426 378c0 7-3 14-8 19l-39 39c-5 5-12 8-20 8c-7 0-14-3-19-8l-84-84l-84 84c-5 5-12 8-19 8c-8 0-15-3-20-8l-39-39c-5-5-8-12-8-19c0-8 3-14 8-20l84-84l-84-84c-5-5-8-12-8-19c0-8 3-14 8-20l39-38c5-6 12-8 20-8c7 0 14 2 19 8l84 84l84-84c5-6 12-8 19-8c8 0 15 2 20 8l39 38c5 6 8 12 8 20c0 7-3 14-8 19l-84 84l84 84c5 6 8 12 8 20z"/>
    </symbol>
  
    <symbol id="icon-table" viewBox="0 0 512 512">
      <path d="m165 393l0-55c0-2-1-5-3-6c-2-2-4-3-7-3l-91 0c-3 0-5 1-7 3c-1 1-2 4-2 6l0 55c0 3 1 5 2 7c2 1 4 2 7 2l91 0c3 0 5-1 7-2c2-2 3-4 3-7z m0-110l0-54c0-3-1-5-3-7c-2-2-4-3-7-3l-91 0c-3 0-5 1-7 3c-1 2-2 4-2 7l0 54c0 3 1 5 2 7c2 2 4 3 7 3l91 0c3 0 5-1 7-3c2-2 3-4 3-7z m146 110l0-55c0-2-1-5-3-6c-1-2-4-3-6-3l-92 0c-2 0-5 1-6 3c-2 1-3 4-3 6l0 55c0 3 1 5 3 7c1 1 4 2 6 2l92 0c2 0 5-1 6-2c2-2 3-4 3-7z m-146-219l0-55c0-3-1-5-3-7c-2-1-4-2-7-2l-91 0c-3 0-5 1-7 2c-1 2-2 4-2 7l0 55c0 2 1 5 2 6c2 2 4 3 7 3l91 0c3 0 5-1 7-3c2-1 3-4 3-6z m146 109l0-54c0-3-1-5-3-7c-1-2-4-3-6-3l-92 0c-2 0-5 1-6 3c-2 2-3 4-3 7l0 54c0 3 1 5 3 7c1 2 4 3 6 3l92 0c2 0 5-1 6-3c2-2 3-4 3-7z m146 110l0-55c0-2-1-5-2-6c-2-2-4-3-7-3l-91 0c-3 0-5 1-7 3c-2 1-3 4-3 6l0 55c0 3 1 5 3 7c2 1 4 2 7 2l91 0c3 0 5-1 7-2c1-2 2-4 2-7z m-146-219l0-55c0-3-1-5-3-7c-1-1-4-2-6-2l-92 0c-2 0-5 1-6 2c-2 2-3 4-3 7l0 55c0 2 1 5 3 6c1 2 4 3 6 3l92 0c2 0 5-1 6-3c2-1 3-4 3-6z m146 109l0-54c0-3-1-5-2-7c-2-2-4-3-7-3l-91 0c-3 0-5 1-7 3c-2 2-3 4-3 7l0 54c0 3 1 5 3 7c2 2 4 3 7 3l91 0c3 0 5-1 7-3c1-2 2-4 2-7z m0-109l0-55c0-3-1-5-2-7c-2-1-4-2-7-2l-91 0c-3 0-5 1-7 2c-2 2-3 4-3 7l0 55c0 2 1 5 3 6c2 2 4 3 7 3l91 0c3 0 5-1 7-3c1-1 2-4 2-6z m37-92l0 311c0 13-5 23-14 32c-9 9-19 14-32 14l-384 0c-13 0-23-5-32-14c-9-9-14-19-14-32l0-311c0-12 5-23 14-32c9-9 19-13 32-13l384 0c13 0 23 4 32 13c9 9 14 20 14 32z"/>
    </symbol>
  
    <symbol id="icon-backward" viewBox="0 0 512 512">
      <path d="m481 40c3-3 7-5 9-3c2 1 4 4 4 9l0 420c0 5-2 8-4 9c-2 2-6 0-9-3l-203-203c-2-2-3-4-4-6l0 203c0 5-1 8-3 9c-3 2-6 0-10-3l-202-203c-4-4-6-8-6-13c0-5 2-9 6-13l202-203c4-3 7-5 10-3c2 1 3 4 3 9l0 203c1-3 2-4 4-6z"/>
    </symbol>
  
    <symbol id="icon-exclamation" viewBox="0 0 512 512">
      <path d="m311 357l0 64c0 5-2 9-6 12c-3 4-7 6-12 6l-74 0c-5 0-9-2-12-6c-4-3-6-7-6-12l0-64c0-5 2-10 6-13c3-4 7-6 12-6l74 0c5 0 9 2 12 6c4 3 6 8 6 13z m8-302l-8 219c0 5-2 10-5 13c-4 4-8 6-13 6l-74 0c-5 0-9-2-13-6c-3-3-5-8-5-13l-8-219c-1-5 1-9 5-13c3-4 7-5 12-5l92 0c5 0 9 1 12 5c4 4 6 8 5 13z"/>
    </symbol>
  
    <symbol id="icon-exclamation-triangle" viewBox="0 0 512 512">
      <path d="m293 393l0-54c0-3-1-5-3-7c-2-2-4-3-7-3l-54 0c-3 0-5 1-7 3c-2 2-3 4-3 7l0 54c0 3 1 5 3 7c2 1 4 2 7 2l54 0c3 0 5-1 7-2c2-2 3-4 3-7z m-1-107l5-131c0-2-1-4-3-6c-2-2-4-3-7-3l-62 0c-3 0-5 1-7 3c-2 2-3 4-3 6l5 131c0 2 1 3 3 5c1 1 4 2 6 2l53 0c3 0 5-1 7-2c2-2 3-3 3-5z m-4-267l219 402c7 12 7 24 0 36c-3 6-8 10-13 14c-6 3-12 4-19 4l-438 0c-7 0-13-1-19-4c-5-4-10-8-13-14c-7-12-7-24 0-36l219-402c3-6 8-10 13-14c6-3 12-5 19-5c7 0 13 2 19 5c5 4 10 8 13 14z"/>
    </symbol>
  
    <symbol id="icon-fast-backward" viewBox="0 0 512 512">
      <path d="m499 40c4-3 7-5 9-3c3 1 4 4 4 9l0 420c0 5-1 8-4 9c-2 2-5 0-9-3l-203-203c-1-2-3-4-3-6l0 203c0 5-2 8-4 9c-3 2-6 0-9-3l-203-203c-2-2-3-4-4-6l0 194c0 5-2 9-5 13c-4 4-8 5-13 5l-37 0c-5 0-9-1-13-5c-3-4-5-8-5-13l0-402c0-5 2-9 5-13c4-4 8-5 13-5l37 0c5 0 9 1 13 5c3 4 5 8 5 13l0 194c1-3 2-4 4-6l203-203c3-3 6-5 9-3c2 1 4 4 4 9l0 203c0-3 2-4 3-6z"/>
    </symbol>
  
    <symbol id="icon-fast-forward" viewBox="0 0 512 512">
      <path d="m13 472c-4 3-7 5-9 3c-3-1-4-4-4-9l0-420c0-5 1-8 4-9c2-2 5 0 9 3l203 203c1 2 2 3 3 6l0-203c0-5 2-8 4-9c3-2 6 0 9 3l203 203c2 2 3 3 4 6l0-194c0-5 2-9 5-13c4-4 8-5 13-5l37 0c5 0 9 1 13 5c3 4 5 8 5 13l0 402c0 5-2 9-5 13c-4 4-8 5-13 5l-37 0c-5 0-9-1-13-5c-3-4-5-8-5-13l0-194c-1 2-2 4-4 6l-203 203c-3 3-6 5-9 3c-2-1-4-4-4-9l0-203c-1 2-2 4-3 6z"/>
    </symbol>
  
    <symbol id="icon-forward" viewBox="0 0 512 512">
      <path d="m31 472c-3 3-7 5-9 3c-2-1-4-4-4-9l0-420c0-5 2-8 4-9c2-2 6 0 9 3l203 203c2 2 3 3 4 6l0-203c0-5 1-8 3-9c3-2 6 0 10 3l202 203c4 4 6 8 6 13c0 5-2 9-6 13l-202 203c-4 3-7 5-10 3c-2-1-3-4-3-9l0-203c-1 2-2 4-4 6z"/>
    </symbol>
  
    <symbol id="icon-step-backward" viewBox="0 0 512 512">
      <path d="m389 40c4-3 7-5 10-3c2 1 3 4 3 9l0 420c0 5-1 8-3 9c-3 2-6 0-10-3l-202-203c-2-2-3-4-4-6l0 194c0 5-2 9-6 13c-3 4-7 5-12 5l-37 0c-5 0-9-1-13-5c-3-4-5-8-5-13l0-402c0-5 2-9 5-13c4-4 8-5 13-5l37 0c5 0 9 1 12 5c4 4 6 8 6 13l0 194c1-3 2-4 4-6z"/>
    </symbol>
  
    <symbol id="icon-step-forward" viewBox="0 0 512 512">
      <path d="m123 472c-4 3-7 5-10 3c-2-1-3-4-3-9l0-420c0-5 1-8 3-9c3-2 6 0 10 3l202 203c2 2 3 3 4 6l0-194c0-5 2-9 6-13c3-4 7-5 12-5l37 0c5 0 9 1 13 5c3 4 5 8 5 13l0 402c0 5-2 9-5 13c-4 4-8 5-13 5l-37 0c-5 0-9-1-12-5c-4-4-6-8-6-13l0-194c-1 2-2 4-4 6z"/>
    </symbol>
  
    <symbol id="icon-trash-bin" viewBox="0 0 512 512">
      <path d="m201 210l0 165c0 3-1 5-2 6c-2 2-4 3-7 3l-18 0c-3 0-5-1-7-3c-2-1-2-3-2-6l0-165c0-2 0-5 2-6c2-2 4-3 7-3l18 0c3 0 5 1 7 3c1 1 2 4 2 6z m73 0l0 165c0 3-1 5-2 6c-2 2-4 3-7 3l-18 0c-3 0-5-1-7-3c-1-1-2-3-2-6l0-165c0-2 1-5 2-6c2-2 4-3 7-3l18 0c3 0 5 1 7 3c1 1 2 4 2 6z m73 0l0 165c0 3 0 5-2 6c-2 2-4 3-7 3l-18 0c-3 0-5-1-7-3c-1-1-2-3-2-6l0-165c0-2 1-5 2-6c2-2 4-3 7-3l18 0c3 0 5 1 7 3c2 1 2 4 2 6z m37 207l0-271l-256 0l0 271c0 4 1 8 2 12c1 3 3 6 4 7c2 2 3 3 3 3l238 0c0 0 1-1 3-3c1-1 3-4 4-7c1-4 2-8 2-12z m-192-307l128 0l-14-34c-1-1-3-2-5-3l-90 0c-2 1-4 2-5 3z m265 9l0 18c0 3-1 5-2 7c-2 1-4 2-7 2l-27 0l0 271c0 16-5 30-14 41c-9 12-20 17-32 17l-238 0c-12 0-23-5-32-16c-9-11-14-25-14-41l0-272l-27 0c-3 0-5-1-7-2c-1-2-2-4-2-7l0-18c0-3 1-5 2-7c2-1 4-2 7-2l88 0l20-48c3-7 8-13 16-18c7-5 15-7 22-7l92 0c7 0 15 2 22 7c8 5 13 11 16 18l20 48l88 0c3 0 5 1 7 2c1 2 2 4 2 7z"/>
    </symbol>
  
</svg>
