<svg xmlns="http://www.w3.org/2000/svg" style="display: none;">
  
    <symbol id="icon-world" viewBox="0 0 512 512">
      <path d="m248 0c-137 0-248 111-248 248c0 137 111 248 248 248c137 0 248-111 248-248c0-137-111-248-248-248z m216 240l-96 0c-1-35-8-69-19-100c22-9 42-21 60-35c32 36 53 83 55 135z m-225 224c-26-23-49-51-65-85c21-6 43-10 66-11l0 96c0 0-1 0-1 0z m18-432c30 26 55 59 71 98c-23 8-47 13-72 14l0-112c0 0 1 0 1 0z m26 3c45 8 84 28 115 58c-17 13-35 24-55 32c-14-35-35-65-60-90z m-43-3l0 112c-25-1-49-6-72-14c16-39 41-72 71-98c0 0 1 0 1 0z m-87 93c-20-8-38-19-55-32c31-30 70-50 115-58c-25 25-46 55-60 90z m9 20c24 9 51 14 78 15l0 80l-96 0c1-34 7-66 18-95z m78 111l0 96c-25 1-50 5-73 13c-13-33-22-70-23-109z m-27 205c-40-7-76-24-105-49c16-11 33-20 51-27c14 29 32 54 54 76z m43 3l0-96c23 1 45 5 66 11c-16 34-39 62-65 85c0 0-1 0-1 0z m81-79c18 7 35 16 51 27c-29 25-65 42-105 49c22-22 40-47 54-76z m-8-20c-23-8-48-12-73-13l0-96l96 0c-1 39-10 76-23 109z m-73-125l0-80c27-1 54-6 78-15c11 29 17 62 18 95l-96 0z m-169-135c18 14 38 26 60 35c-11 31-18 65-19 100l-96 0c2-52 23-99 55-135z m-55 151l96 0c1 41 10 79 24 114c-20 8-39 19-56 31c-38-37-62-88-64-145z m368 145c-17-12-36-23-56-31c14-35 23-73 24-114l96 0c-2 57-26 108-64 145z"/>
    </symbol>
  
    <symbol id="icon-pin-map" viewBox="0 0 512 512">
      <path d="m329 183c0-20-7-38-21-52c-15-14-32-21-52-21c-20 0-37 7-52 21c-14 14-21 32-21 52c0 20 7 37 21 52c15 14 32 21 52 21c20 0 37-7 52-21c14-15 21-32 21-52z m73 0c0 21-3 38-9 51l-104 221c-3 6-8 11-14 15c-6 4-12 5-19 5c-7 0-13-1-19-5c-6-4-11-9-14-15l-104-221c-6-13-9-30-9-51c0-41 14-75 43-104c28-28 63-42 103-42c40 0 75 14 103 42c29 29 43 63 43 104z"/>
    </symbol>
  
    <symbol id="icon-male-female" viewBox="0 0 512 512">
      <path d="m157 101c0 23-19 42-43 42c-23 0-42-19-42-42c0-23 19-42 42-42c24 0 43 19 43 42z m38 54l0 0l-152 0l0 0c-11 0-20 8-20 19l0 0l0 120l0 0c0 5 2 10 5 13c7 7 19 7 25 0c4-3 6-8 6-13l0 0l0-83l0 0c0-3 2-6 5-6c3 0 6 3 6 6l0 0l0 219c0 12 9 21 21 21c11 0 21-9 21-21l0-110l0 0c0-3 2-6 6-6c3 0 5 3 5 6l1 0l0 110c0 12 9 21 20 21c12 0 21-9 21-21l0-219c0-3 3-6 6-6c3 0 6 3 6 6l0 83l0 0c0 5 2 10 5 13c7 7 18 7 25 0c4-3 5-8 5-13l0 0l0-120c0-10-7-18-17-19z m218-54c0 24-19 43-43 43c-23 0-42-19-42-43c0-23 19-42 42-42c24 0 43 19 43 42z m76 176l-28-106c0 0 0 0 0 0l-1-2l0 0c-3-8-10-14-19-14c0 0 0 0 0 0l0 0l-134 0l0 0c-9 0-16 6-19 14l0 0l0 2c0 0-1 0-1 0l-28 106l0 0c0 1 0 2 0 3c0 10 8 18 18 18c8 0 14-5 17-11l0 0l21-78l0 0l0 0c1-2 3-4 6-4c2 0 4 2 5 4l0 0l0 1c0 0 0 0 0 0c0 1 0 1 0 1l0 1l-33 124c-1 1-1 2-1 4l0 0l0 0c0 0 0 0 0 0c0 6 4 10 10 10l24 0l0 82c0 12 10 21 21 21c12 0 21-9 21-21l0-82l12 0l0 82c0 12 9 21 21 21c12 0 21-9 21-21l0-82l25 0c5 0 9-4 9-10c0 0 0 0 0 0l0 0l0 0c0-2 0-3-1-4l-33-124l0 0c0-1 0-1 0-2c0-3 2-5 6-5c2 0 4 2 5 4l0 0l21 78l0 0c3 6 9 11 17 11c10 0 18-8 18-18c0-1 0-2 0-3z"/>
    </symbol>
  
    <symbol id="icon-group" viewBox="0 0 512 512">
      <path d="m158 256c-29 1-52 12-71 34l-35 0c-15 0-27-3-37-11c-10-7-15-17-15-31c0-63 11-94 33-94c1 0 5 1 12 5c6 4 15 8 26 12c10 3 21 5 31 5c12 0 24-2 36-6c-1 7-1 13-1 18c0 24 7 47 21 68z m286 170c0 21-7 38-20 50c-13 13-30 19-51 19l-234 0c-21 0-38-6-51-19c-13-12-20-29-20-50c0-10 1-19 1-28c1-9 2-18 4-29c2-10 4-20 7-29c3-9 7-17 11-26c5-8 11-15 17-21c6-6 14-11 23-15c9-3 19-5 30-5c1 0 5 2 11 6c6 4 12 8 19 13c8 4 17 9 29 12c12 4 24 6 36 6c12 0 24-2 36-6c12-3 21-8 29-12c7-5 13-9 19-13c6-4 10-6 11-6c11 0 21 2 30 5c9 4 17 9 23 15c6 6 12 13 17 21c4 9 8 17 11 26c3 9 5 19 7 29c2 11 3 20 4 29c0 9 1 18 1 28z m-273-341c0 19-7 35-20 49c-14 13-30 20-49 20c-18 0-35-7-48-20c-13-14-20-30-20-49c0-19 7-35 20-48c13-13 30-20 48-20c19 0 35 7 49 20c13 13 20 29 20 48z m187 103c0 28-10 52-30 72c-20 20-44 30-72 30c-28 0-52-10-72-30c-20-20-30-44-30-72c0-29 10-53 30-73c20-20 44-30 72-30c28 0 52 10 72 30c20 20 30 44 30 73z m154 60c0 14-5 24-15 31c-10 8-22 11-37 11l-35 0c-19-22-42-33-71-34c14-21 21-44 21-68c0-5 0-11-1-18c12 4 24 6 36 6c10 0 21-2 31-5c11-4 20-8 26-12c7-4 11-5 12-5c22 0 33 31 33 94z m-34-163c0 19-7 35-20 49c-13 13-30 20-48 20c-19 0-35-7-49-20c-13-14-20-30-20-49c0-19 7-35 20-48c14-13 30-20 49-20c18 0 35 7 48 20c13 13 20 29 20 48z"/>
    </symbol>
  
    <symbol id="icon-user" viewBox="0 0 512 512">
      <path d="m457 401c0 23-7 41-21 55c-14 13-32 19-55 19l-250 0c-23 0-41-6-55-19c-14-14-21-32-21-55c0-10 0-20 1-29c1-10 2-20 4-31c2-11 4-22 7-31c3-10 8-19 13-28c5-9 11-17 17-23c7-7 15-12 25-16c9-3 20-5 32-5c1 0 5 2 12 6c6 4 13 9 21 14c8 5 18 9 31 13c13 4 25 6 38 6c13 0 25-2 38-6c13-4 23-8 31-13c8-5 15-10 21-14c7-4 11-6 12-6c12 0 23 2 32 5c10 4 18 9 25 16c6 6 12 14 17 23c5 9 10 18 13 28c3 9 5 20 7 31c2 11 3 21 4 31c1 9 1 19 1 29z m-91-255c0 31-11 56-32 78c-22 21-48 32-78 32c-30 0-56-11-78-32c-21-22-32-47-32-78c0-30 11-56 32-77c22-22 48-32 78-32c30 0 56 10 78 32c21 21 32 47 32 77z"/>
    </symbol>
  
    <symbol id="icon-calendar" viewBox="0 0 512 512">
      <path d="m55 475l402 0l0-292l-402 0z m110-347l0-82c0-3-1-5-3-7c-2-2-4-2-7-2l-18 0c-3 0-5 0-6 2c-2 2-3 4-3 7l0 82c0 3 1 5 3 7c1 1 3 2 6 2l18 0c3 0 5-1 7-2c2-2 3-4 3-7z m219 0l0-82c0-3-1-5-3-7c-1-2-3-2-6-2l-18 0c-3 0-5 0-7 2c-2 2-3 4-3 7l0 82c0 3 1 5 3 7c2 1 4 2 7 2l18 0c3 0 5-1 6-2c2-2 3-4 3-7z m110-18l0 365c0 10-4 19-11 26c-7 7-16 11-26 11l-402 0c-10 0-19-4-26-11c-7-7-11-16-11-26l0-365c0-10 4-19 11-26c7-7 16-11 26-11l36 0l0-27c0-13 5-24 14-33c9-9 20-13 32-13l18 0c13 0 24 4 33 13c9 9 13 20 13 33l0 27l110 0l0-27c0-13 4-24 13-33c9-9 20-13 33-13l18 0c12 0 23 4 32 13c9 9 14 20 14 33l0 27l36 0c10 0 19 4 26 11c7 7 11 16 11 26z"/>
    </symbol>
  
    <symbol id="icon-calendar-1" viewBox="0 0 512 512">
      <path d="m55 475l82 0l0-82l-82 0z m100 0l92 0l0-82l-92 0z m-100-100l82 0l0-92l-82 0z m100 0l92 0l0-92l-92 0z m-100-110l82 0l0-82l-82 0z m210 210l92 0l0-82l-92 0z m-110-210l92 0l0-82l-92 0z m220 210l82 0l0-82l-82 0z m-110-100l92 0l0-92l-92 0z m-100-247l0-82c0-3-1-5-3-7c-2-2-4-2-7-2l-18 0c-2 0-4 0-6 2c-2 2-3 4-3 7l0 82c0 2 1 5 3 6c2 2 4 3 6 3l18 0c3 0 5-1 7-3c2-1 3-4 3-6z m210 247l82 0l0-92l-82 0z m-110-110l92 0l0-82l-92 0z m110 0l82 0l0-82l-82 0z m9-137l0-82c0-3-1-5-3-7c-2-2-4-2-6-2l-18 0c-3 0-5 0-7 2c-2 2-3 4-3 7l0 82c0 2 1 5 3 6c2 2 4 3 7 3l18 0c2 0 4-1 6-3c2-1 3-4 3-6z m110-18l0 365c0 10-4 19-11 26c-7 7-16 11-26 11l-402 0c-10 0-19-4-26-11c-7-7-11-16-11-26l0-365c0-10 4-19 11-26c7-7 16-11 26-11l36 0l0-27c0-13 5-24 14-33c9-9 20-13 32-13l18 0c13 0 24 4 33 13c9 9 13 20 13 33l0 27l110 0l0-27c0-13 4-24 13-33c9-9 20-13 33-13l18 0c12 0 23 4 32 13c9 9 14 20 14 33l0 27l36 0c10 0 19 4 26 11c7 7 11 16 11 26z"/>
    </symbol>
  
    <symbol id="icon-dollar" viewBox="0 0 512 512">
      <path d="m389 339c0 29-9 54-28 75c-19 21-44 34-74 39l0 50c0 3-1 5-3 6c-1 2-4 3-6 3l-39 0c-2 0-4-1-6-3c-2-2-3-4-3-6l0-50c-13-2-25-5-36-9c-12-4-22-8-29-13c-8-4-15-9-22-13c-6-5-10-9-13-11c-2-2-4-4-5-5c-3-4-3-8 0-12l29-39c1-1 4-3 7-3c2 0 5 0 6 3l1 0c22 19 45 31 69 36c7 1 15 2 22 2c15 0 29-4 40-12c12-8 18-20 18-35c0-5-2-10-4-15c-3-5-6-9-10-12c-4-3-9-7-17-11c-7-4-14-7-19-9c-5-2-12-5-22-9c-8-3-14-6-18-7c-4-2-10-5-18-8c-7-3-13-6-17-9c-5-2-10-6-17-10c-6-4-11-8-15-12c-4-4-8-9-12-14c-5-6-8-11-10-17c-3-5-5-12-6-19c-2-7-3-14-3-22c0-26 9-49 28-69c19-20 43-33 73-38l0-52c0-2 1-4 3-6c2-2 4-3 6-3l39 0c2 0 5 1 6 3c2 1 3 3 3 6l0 50c11 2 21 4 31 7c11 3 19 6 25 10c7 3 13 6 18 10c6 4 10 7 12 9c1 1 3 2 4 4c3 3 4 7 1 10l-23 42c-1 3-4 5-6 5c-3 0-6 0-8-2c-1-1-2-2-4-4c-2-1-6-4-11-7c-6-4-11-7-17-9c-6-3-13-6-21-8c-9-2-17-3-25-3c-18 0-33 4-44 12c-12 8-17 19-17 32c0 5 1 9 2 14c2 4 5 8 9 11c4 4 7 7 11 10c3 2 9 5 16 9c7 3 13 6 17 7c5 2 11 5 20 8c10 4 18 7 23 9c6 2 13 6 22 10c9 5 16 9 22 12c5 4 11 9 17 15c7 6 12 12 15 18c4 6 7 13 9 22c3 8 4 17 4 27z"/>
    </symbol>
  
    <symbol id="icon-dollar-1" viewBox="0 0 512 512">
      <path d="m278 229l0-51c17 4 33 12 47 24l0 0c1 1 2 1 4 1c1 0 3-1 4-2l0 0l22-31l0 0c1-1 1-2 1-4c0-1 0-3-2-4c-20-19-46-30-76-33l0-30l0 0c0-3-3-6-6-6l-23 0c-4 0-6 3-6 6l0 29c-51 5-81 38-81 75c0 51 42 66 81 76l0 58c-25-5-46-18-59-32c0 0-1 0-1 0c0 0 0-1 0-1l0 0c-1 0-2-1-4-1c-2 0-4 1-5 3l0 0l-21 32l0 0c-1 1-1 2-1 3c0 2 0 4 2 5l0 0c20 21 49 36 89 39l0 28c0 3 2 6 6 6l23 0c3 0 6-3 6-6l0 0l0-28c55-6 82-38 82-79c0-52-43-67-82-77z m-35-8c-16-5-26-11-26-22c0-12 9-21 26-24z m35 116l0-50c16 5 28 11 28 24c0 12-9 23-28 26z"/>
    </symbol>
  
    <symbol id="icon-bank-notes" viewBox="0 0 512 512">
      <path d="m427 171l0-64l-427 0l0 256l64 0l0 64l427 0l0-256z m-363 149l-21 0l0-171l341 0l0 22l-320 0z m384 64l-341 0l0-171l341 0z m-320-149l0 128l299 0l0-128z m21 106l0-85l70 0c-3 6-6 14-6 21l0 43c0 8 3 15 6 21z m171-32c0 18-14 32-32 32l-21 0c-18 0-32-14-32-32l0-21c0-18 14-32 32-32l21 0c18 0 32 14 32 32z m85 32l-70 0c4-6 6-13 6-21l0-43c0-7-2-15-6-21l70 0z"/>
    </symbol>
  
    <symbol id="icon-money-banknote" viewBox="0 0 512 512">
      <path d="m205 324l102 0l0-25l-34 0l0-120l-30 0l-40 37l21 21c7-7 12-12 14-15l1 0l0 77l-34 0z m136-68c0 12-2 25-5 38c-4 13-9 25-16 36c-7 11-16 20-27 27c-11 6-24 10-37 10c-13 0-26-4-37-10c-11-7-20-16-27-27c-7-11-12-23-16-36c-3-13-5-26-5-38c0-12 2-25 5-38c4-13 9-25 16-36c7-11 16-20 27-27c11-6 24-10 37-10c13 0 26 4 37 10c11 7 20 16 27 27c7 11 12 23 16 36c3 13 5 26 5 38z m137 68l0-136c-19 0-35-7-48-20c-14-14-20-30-20-49l-308 0c0 19-6 35-20 49c-13 13-29 20-48 20l0 136c19 0 35 7 48 20c14 14 20 30 20 49l308 0c0-19 6-35 20-49c13-13 29-20 48-20z m34-222l0 308c0 4-2 8-5 12c-3 3-7 5-12 5l-478 0c-5 0-9-2-12-5c-3-4-5-8-5-12l0-308c0-4 2-8 5-12c3-3 7-5 12-5l478 0c5 0 9 2 12 5c3 4 5 8 5 12z"/>
    </symbol>
  
    <symbol id="icon-search-find" viewBox="0 0 512 512">
      <path d="m347 238c0-36-12-66-37-91c-25-25-55-37-91-37c-35 0-65 12-90 37c-25 25-38 55-38 91c0 35 13 65 38 90c25 25 55 38 90 38c36 0 66-13 91-38c25-25 37-55 37-90z m147 237c0 10-4 19-11 26c-7 7-16 11-26 11c-10 0-19-4-26-11l-98-98c-34 24-72 36-114 36c-27 0-53-5-78-16c-25-11-46-25-64-43c-18-18-32-39-43-64c-10-25-16-51-16-78c0-28 6-54 16-78c11-25 25-47 43-65c18-18 39-32 64-43c25-10 51-15 78-15c28 0 54 5 79 15c24 11 46 25 64 43c18 18 32 40 43 65c10 24 16 50 16 78c0 42-12 80-36 114l98 98c7 7 11 15 11 25z"/>
    </symbol>
  
    <symbol id="icon-gears-setting" viewBox="0 0 512 512">
      <path d="m239 256c0-19-7-35-20-48c-13-14-29-20-48-20c-19 0-35 6-49 20c-13 13-20 29-20 48c0 19 7 35 20 48c14 14 30 20 49 20c19 0 35-6 48-20c13-13 20-29 20-48z m205 137c0-10-4-18-10-24c-7-7-15-11-24-11c-10 0-18 4-24 11c-7 6-11 14-11 24c0 9 4 17 10 24c7 6 15 10 25 10c9 0 17-4 24-10c6-7 10-15 10-24z m0-274c0-9-4-17-10-24c-7-6-15-10-24-10c-10 0-18 4-24 10c-7 7-11 15-11 24c0 10 4 18 10 25c7 6 15 10 25 10c9 0 17-4 24-10c6-7 10-15 10-25z m-103 113l0 49c0 2 0 4-2 5c-1 2-2 3-4 3l-41 6c-2 7-5 13-9 21c6 8 14 18 24 30c2 2 2 4 2 6c0 2 0 4-2 5c-4 5-11 13-22 24c-10 10-17 16-21 16c-2 0-3-1-5-2l-31-24c-6 3-13 6-20 8c-2 19-4 33-7 41c-1 5-3 7-8 7l-49 0c-2 0-4-1-5-2c-2-2-3-3-3-5l-6-41c-6-2-13-4-20-8l-32 24c-1 1-3 2-5 2c-2 0-4-1-6-3c-25-23-38-37-38-42c0-2 1-4 2-5c2-3 5-8 11-14c5-7 9-13 12-17c-4-8-7-15-9-22l-41-6c-1 0-3-1-4-3c-1-1-2-3-2-5l0-49c0-2 1-4 2-5c1-2 3-3 4-3l41-6c2-7 5-13 9-21c-6-8-14-18-24-30c-1-2-2-4-2-6c0-2 1-4 2-5c4-5 11-13 22-24c11-10 18-16 21-16c2 0 4 1 6 2l30 24c6-3 13-6 21-8c2-19 4-33 6-41c1-5 4-7 8-7l49 0c2 0 4 1 6 2c1 2 2 3 2 5l7 41c6 2 12 4 20 8l31-24c1-1 3-2 5-2c2 0 4 1 6 3c26 23 38 37 38 42c0 2 0 4-1 5c-3 3-6 8-12 15c-5 6-9 12-12 16c4 8 7 16 9 22l41 6c2 0 3 1 4 3c2 1 2 3 2 5z m171 142l0 37c0 3-13 6-40 8c-2 5-5 10-8 14c9 20 14 33 14 37c0 1 0 1-1 2c-22 13-33 19-33 19c-2 0-6-4-13-13c-6-8-11-14-13-18c-4 1-7 1-8 1c-2 0-5 0-8-1c-3 4-8 10-14 18c-7 9-11 13-13 13c0 0-11-6-33-19c0-1-1-1-1-2c0-4 5-17 14-37c-3-4-6-9-8-14c-27-2-40-5-40-8l0-37c0-3 13-6 40-8c2-6 5-10 8-14c-9-20-14-33-14-37c0-1 1-1 1-2c1 0 4-2 10-5c5-3 10-6 15-9c5-3 8-5 8-5c2 0 6 5 13 13c6 8 11 14 14 18c3-1 6-1 8-1c1 0 4 0 8 1c9-13 17-23 24-30l2-1c0 0 11 7 33 19c1 1 1 1 1 2c0 4-5 17-14 37c3 4 6 8 8 14c27 2 40 5 40 8z m0-273l0 37c0 3-13 6-40 8c-2 5-5 10-8 14c9 20 14 33 14 37c0 1 0 1-1 2c-22 13-33 19-33 19c-2 0-6-4-13-13c-6-8-11-14-13-18c-4 1-7 1-8 1c-2 0-5 0-8-1c-3 4-8 10-14 18c-7 9-11 13-13 13c0 0-11-6-33-19c0-1-1-1-1-2c0-4 5-17 14-37c-3-4-6-9-8-14c-27-2-40-5-40-8l0-37c0-3 13-6 40-8c2-6 5-10 8-14c-9-20-14-33-14-37c0-1 1-1 1-2c1 0 4-2 10-5c5-4 10-7 15-9c5-3 8-5 8-5c2 0 6 4 13 13c6 8 11 14 14 18c3-1 6-1 8-1c1 0 4 0 8 1c9-13 17-23 24-30l2-1c0 0 11 7 33 19c1 1 1 1 1 2c0 4-5 17-14 37c3 4 6 8 8 14c27 2 40 5 40 8z"/>
    </symbol>
  
    <symbol id="icon-cog-gear" viewBox="0 0 512 512">
      <path d="m329 256c0-20-7-37-21-52c-15-14-32-21-52-21c-20 0-37 7-52 21c-14 15-21 32-21 52c0 20 7 37 21 52c15 14 32 21 52 21c20 0 37-7 52-21c14-15 21-32 21-52z m146-31l0 63c0 3 0 5-2 7c-1 2-3 3-6 4l-52 8c-4 10-8 19-12 26c7 9 17 22 31 39c2 2 3 5 3 7c0 3-1 5-3 7c-5 7-14 17-28 31c-14 13-23 20-27 20c-2 0-5-1-7-3l-40-31c-8 5-17 8-26 11c-3 26-6 44-8 53c-1 6-5 8-10 8l-64 0c-2 0-5 0-7-2c-2-2-3-4-3-6l-8-53c-9-3-18-6-26-10l-40 30c-2 2-4 3-7 3c-3 0-5-1-7-3c-24-22-40-38-47-48c-2-2-2-4-2-7c0-2 0-4 2-6c3-4 8-11 14-19c7-9 12-16 16-21c-5-9-9-19-12-28l-52-8c-3 0-5-1-6-3c-2-2-2-4-2-7l0-63c0-3 0-5 2-7c1-2 3-3 5-4l53-8c3-8 7-17 12-26c-8-11-18-24-31-39c-2-3-3-5-3-7c0-2 1-4 3-7c5-7 14-17 28-30c14-14 23-21 27-21c2 0 5 1 7 3l40 31c8-5 17-8 26-11c3-26 6-44 8-53c1-6 5-8 10-8l64 0c2 0 5 0 7 2c2 2 3 4 3 6l8 53c9 3 18 6 26 10l40-30c2-2 4-3 7-3c3 0 5 1 7 3c25 23 41 39 47 49c2 1 2 3 2 6c0 2 0 4-2 6c-3 4-8 11-14 19c-7 9-12 16-16 21c5 9 9 18 12 28l52 8c3 0 5 1 6 3c2 2 2 4 2 7z"/>
    </symbol>
  
    <symbol id="icon-skull" viewBox="0 0 512 512">
      <path d="m447 370c-12-11-30-12-42-1l-46-46c13-19 20-42 20-67c0-25-7-48-20-67l46-46c12 11 30 11 41-1c12-12 12-31 1-42c-7-7-17-10-26-9c2-9-1-19-8-26c-12-12-31-12-43 0c-11 12-12 30-1 42l-46 46c-19-13-42-20-67-20c-25 0-48 7-67 20l-46-46c11-12 11-30-1-41c-12-12-31-12-42-1c-7 7-10 17-9 26c-9-2-19 1-26 8c-12 12-12 31 0 43c12 11 30 12 42 1l46 46c-13 19-20 42-20 67c0 25 7 48 20 67l-46 46c-12-11-30-11-41 1c-12 12-12 31-1 42c7 7 17 10 26 9c-2 9 1 19 8 26c12 12 31 12 43 0c11-12 12-30 1-42l44-44l0 30c19 15 43 24 69 24c26 0 50-9 69-24l0-30l44 44c-11 12-11 30 1 41c12 12 31 12 42 1c7-7 10-17 9-26c9 2 19-1 26-8c12-12 12-31 0-43z m-225-68c-13 0-23-11-23-23c0-13 10-24 23-24c13 0 24 11 24 24c0 12-11 23-24 23z m68 0c-13 0-24-10-24-23c0-13 11-24 24-24c13 0 23 11 23 24c0 13-10 23-23 23z"/>
    </symbol>
  
    <symbol id="icon-chart-pie" viewBox="0 0 512 512">
      <path d="m229 41c0 0 0 188 0 188c0 0-188 0-188 0c6-49 27-92 62-127c35-35 77-56 126-61m55 0c53 7 97 31 133 71c36 41 54 88 54 143c0 59-21 110-63 153c-42 42-93 63-153 63c-55 0-102-18-142-54c-41-36-65-80-72-134c0 0 217 0 217 0c7 0 13-3 18-8c5-4 8-10 8-18c0 0 0-216 0-216"/>
    </symbol>
  
    <symbol id="icon-chart-line" viewBox="0 0 512 512">
      <path d="m17 290c-14-4-20-13-16-29c3-14 12-20 27-16c0 0 50 12 50 12c0 0-26 41-26 41c0 0-35-8-35-8m455 6c4-4 10-6 16-6c7 1 12 3 16 8c11 11 11 22-1 33c0 0-128 115-128 115c-5 4-10 6-16 6c-5 0-9-2-14-5c0 0-146-112-146-112c0 0-28-8-28-8c0 0 26-40 26-40c0 0 18 4 18 4c4 1 7 2 8 4c0 0 135 104 135 104c0 0 114-103 114-103m-251-112c0 0-178 280-178 280c-4 8-11 12-20 12c-4 0-8-2-12-5c-5-3-9-8-10-14c-1-7 0-12 3-17c0 0 191-300 191-300c3-6 7-9 14-11c6-2 12-1 19 3c0 0 125 80 125 80c0 0 115-166 115-166c4-6 9-9 15-10c6-1 12 1 17 5c13 8 15 18 6 31c0 0-128 185-128 185c-9 12-19 14-32 6c0 0-125-79-125-79"/>
    </symbol>
  
    <symbol id="icon-chart-bar" viewBox="0 0 512 512">
      <path d="m435 26c8 0 14 2 19 7c4 5 7 11 7 18c0 0 0 435 0 435c0 0-103 0-103 0c0 0 0-435 0-435c0-17 7-25 21-25c0 0 56 0 56 0m-153 153c7 0 13 3 18 8c5 5 7 11 7 18c0 0 0 281 0 281c0 0-102 0-102 0c0 0 0-281 0-281c0-17 7-26 20-26c0 0 57 0 57 0m-154 154c8 0 14 2 18 7c5 6 8 12 8 18c0 0 0 128 0 128c0 0-103 0-103 0c0 0 0-128 0-128c0-17 7-25 21-25c0 0 56 0 56 0"/>
    </symbol>
  
    <symbol id="icon-chart-area" viewBox="0 0 512 512">
      <path d="m499 60c5-7 8-6 8 2c0 0 0 394 0 394c0 0-494 0-494 0c-4 0-6-2-7-4c-1-2-1-5 2-9c0 0 118-147 118-147c7-8 14-8 20-1c0 0 38 34 38 34c4 2 7 4 11 3c4 0 7-2 9-5c0 0 81-122 81-122c5-9 12-10 19-2c0 0 57 53 57 53c7 7 14 6 20-2c0 0 118-194 118-194"/>
    </symbol>
  
    <symbol id="icon-bar-chart" viewBox="0 0 512 512">
      <path d="m137 290l0 103l-69 0l0-103z m102-136l0 239l-68 0l0-239z m102 68l0 171l-68 0l0-171z m103-103l0 274l-69 0l0-274z m34 299l0-324c0-2-1-4-3-6c-1-2-3-3-6-3l-426 0c-3 0-5 1-6 3c-2 2-3 4-3 6l0 324c0 2 1 4 3 6c1 2 3 3 6 3l426 0c3 0 5-1 6-3c2-2 3-4 3-6z m34-324l0 324c0 12-4 22-13 30c-8 9-18 13-30 13l-426 0c-12 0-22-4-30-13c-9-8-13-18-13-30l0-324c0-12 4-22 13-30c8-9 18-13 30-13l426 0c12 0 22 4 30 13c9 8 13 18 13 30z"/>
    </symbol>
  
    <symbol id="icon-graph-trend" viewBox="0 0 512 512">
      <path d="m436 411c14 0 25-11 25-25l0-260c0-14-11-25-25-25l-360 0c-14 0-25 11-25 25l0 260c0 14 11 25 25 25z m-26-50l-308 0l0-210l308 0z m-197-24c-5 0-10-1-13-5l-25-25l-30 25c-8 7-19 6-26-2c-6-8-5-19 3-25l43-36c7-6 17-5 24 1l21 21l46-72c3-5 9-8 16-8c7 1 12 4 15 10l27 58l53-92c5-9 15-12 24-7c9 5 12 16 7 24l-70 123c-3 5-9 9-16 9c-7-1-13-5-16-11l-28-59l-40 63c-3 5-8 8-13 8c-1 0-2 0-2 0z"/>
    </symbol>
  
    <symbol id="icon-network" viewBox="0 0 512 512">
      <path d="m135 177c-7 0-15 2-21 5c-17-17-32-39-47-65c18-26 40-46 65-61c32 13 57 27 78 42c-2 6-3 11-3 17c0 2 1 5 2 11c-21 16-41 34-59 53c-6-1-11-2-15-2m-50 50c0 12 3 22 10 31c-20 39-34 79-41 119c-22-36-34-77-34-121c0-38 9-73 26-105c13 21 27 40 43 57c-3 8-4 15-4 19m172-162c-10 0-18 2-26 7c-19-15-39-27-58-36c29-10 56-16 83-16c41 0 80 11 118 32c-26 5-54 14-83 26c-9-9-20-13-34-13m75 235c-55-8-104-27-149-57c2-7 2-12 2-16c0-8-2-17-7-26c13-15 30-31 50-46c9 6 19 10 29 10c5 0 11-1 19-4c33 37 55 78 69 123c-5 4-10 10-13 16m65 68c13-5 23-15 28-31c20-1 38-5 55-9c-15 50-44 89-85 118c2-16 3-33 3-50c0-3 0-8 0-14c-1-6-1-11-1-14m-76-34c-65 33-117 79-156 139c-31-12-58-31-81-56c4-49 18-96 41-141c2 1 5 2 10 2c10 0 19-3 27-8c48 34 101 55 159 64m94-252c51 46 77 104 77 174c0 8-1 19-3 34c-21 6-44 10-66 12c-8-19-23-29-45-31c-17-49-42-95-76-135c3-7 5-14 5-21c0 0 0-5 0-5c34-15 70-24 108-28m-70 278c5 4 10 7 16 10c1 6 1 15 1 26c0 28-2 52-7 74c-29 14-62 22-99 22c-20 0-39-3-57-7c37-54 86-96 146-125"/>
    </symbol>
  
    <symbol id="icon-vcard" viewBox="0 0 512 512">
      <path d="m461 51c14 0 26 5 36 15c10 10 15 22 15 36c0 0 0 308 0 308c0 13-5 25-15 35c-10 11-22 16-36 16c0 0-410 0-410 0c-13 0-25-5-36-16c-10-10-15-22-15-35c0 0 0-308 0-308c0-14 5-26 15-36c11-10 23-15 36-15c0 0 410 0 410 0m0 359c0 0 0-308 0-308c0 0-410 0-410 0c0 0 0 308 0 308c0 0 410 0 410 0m-231-101c0 0 0 46 0 46c0 0-128 0-128 0c0 0 0-46 0-46c0 0 128 0 128 0m0-77c0 0 0 47 0 47c0 0-128 0-128 0c0 0 0-47 0-47c0 0 128 0 128 0m0-76c0 0 0 46 0 46c0 0-128 0-128 0c0 0 0-46 0-46c0 0 128 0 128 0m178 163c0 0 2 36 2 36c0 0-128 0-128 0c0-24 1-36 3-36c28-7 43-18 43-33c0-6-5-15-14-29c-9-14-14-29-14-45c0-38 15-56 46-56c31 0 46 18 46 56c0 16-5 31-14 45c-10 14-14 23-14 29c0 7 3 13 10 18c7 6 15 9 22 11c0 0 12 4 12 4"/>
    </symbol>
  
    <symbol id="icon-calendar-2" viewBox="0 0 512 512">
      <path d="m352 256l-32 0 0 64 32 0z m-64 0l-32 0 0 64 32 0z m64-96l-32 0 0 64 32 0z m64 96l-32 0 0 64 32 0z m-128 96l-32 0 0 64 32 0z m96-352l-32 0 0 64 32 0z m-256 0l-32 0 0 64 32 0z m288 160l-32 0 0 64 32 0z m-128 0l-32 0 0 64 32 0z m-128 192l-32 0 0 64 32 0z m-64-96l-32 0 0 64 32 0z m64 0l-32 0 0 64 32 0z m256-224l0 64-96 0 0-64-160 0 0 64-96 0 0-64-64 0 0 448 480 0 0-448z m32 416l-416 0 0-320 416 0z m-352-96l-32 0 0 64 32 0z m128-192l-32 0 0 64 32 0z m0 192l-32 0 0 64 32 0z m-64-192l-32 0 0 64 32 0z m64 96l-32 0 0 64 32 0z m128 96l-32 0 0 64 32 0z"/>
    </symbol>
  
    <symbol id="icon-clipboard-notes" viewBox="0 0 512 512">
      <path d="m413 88l0 0c0 0 0 0 0 0c0-15-12-27-26-27c-1 0-1 0-1 0l-74 0l0-18c0-4-4-8-9-8l0 0l-94 0l0 0c0 0 0 0 0 0c-5 0-8 4-8 8c0 0 0 0 0 1l0 17l-76 0c0 0 0 0 0 0c-14 0-26 12-26 27c0 0 0 0 0 0l0 0l0 362l0 0c0 0 0 0 0 0c0 15 12 27 26 27c1 0 1 0 2 0l0 0l258 0c1 0 1 0 2 0c14 0 26-12 26-27c0 0 0 0 0 0l1 0l0-362z m-50 338l-214 0l0-314l26 0l0 15c0 1 0 1 0 1c0 5 4 9 9 9c0 0 0 0 0 0l0 0l144 0c5 0 9-4 9-9c0 0 0 0 0 0l0-16l26 0l0 314z m-163-215c0-4-2-7-6-7c0 0 0 0 0 1l0-1l-13 0c-3 0-6 3-6 7l0 13c0 3 3 6 6 6l13 0l0 0c0 0 0 0 0 0c4 0 6-3 6-6l0-13l0 0z m137 0c0-4-3-7-6-7c0 0 0 0 0 0l-99 0c-3 0-6 3-6 7l0 13c0 3 3 6 6 6l99 0c3 0 6-3 6-6l0-13l0 0z m-137 51c0-4-2-7-6-7c0 0 0 1 0 1l0-1l-13 0c-3 0-6 3-6 7l0 13c0 3 3 6 6 6l13 0l0 0c0 0 0 0 0 0c4 0 6-3 6-6l0-13l0 0z m137 0c0-4-3-7-6-7c0 0 0 0 0 0l-99 0c-3 0-6 3-6 7l0 13c0 3 3 6 6 6l99 0c3 0 6-3 6-6l0-13l0 0z m-137 51c0-4-2-6-6-6c0 0 0 0 0 0l0 0l-13 0c-3 0-6 2-6 6l0 13c0 3 3 6 6 6l13 0l0 0c0 0 0 0 0 0c4 0 6-3 6-6l0-13l0 0z m137 0c0-4-3-6-6-6c0 0 0 0 0 0l-99 0c-3 0-6 2-6 6l0 13c0 3 3 6 6 6l99 0c3 0 6-3 6-6l0-13l0 0z"/>
    </symbol>
  
    <symbol id="icon-clipboard-pencil" viewBox="0 0 512 512">
      <path d="m450 220l-42-42c-2-2-6-2-9 0l-115 116l0 0l-1 0l-15 59l0 0c-1 2-1 5 1 6c2 2 5 3 7 2l0 0l59-16l0 0l0 0l115-116c3-2 3-6 0-9z m-163 121l9-35l26 26z m81 34l-38 0c0 0 0 0 0 0c-3 0-6 3-6 6l0 0l0 45l-213 0l0-314l25 0l0 15c0 1 0 1 0 1c0 5 4 9 9 9c1 0 1 0 1 0l0 0l143 0c5 0 9-4 9-9c0 0 0 0 0 0l0-16l26 0l0 44l0 0c0 4 3 7 6 7l38 0c4 0 7-3 7-7l0-68l0 0c0 0 0 0 0 0c0-15-12-27-27-27c0 0 0 0-1 0l-74 0l0-18c0-4-4-8-8-8l0 0l-95 0l0 0c0 0 0 0 0 0c-5 0-8 4-8 8c0 0 0 0 0 1l0 17l-75 0c0 0 0 0 0 0c-15 0-27 12-27 27c0 0 0 0 0 0l0 0l0 362l0 0c0 0 0 0 0 0c0 15 12 27 27 27c0 0 0 0 1 0l0 0l258 0c1 0 1 0 2 0c15 0 27-12 27-27c0 0 0 0 0 0l0 0l0-69c0-3-3-6-7-6z"/>
    </symbol>
  
    <symbol id="icon-comments" viewBox="0 0 512 512">
      <path d="m486 91c0-6-6-11-12-11l0 0l-271 0c-7 0-12 5-13 11l0 0l0 68l114 0c6 0 11 4 12 10l0 0l0 150l56 0l33 33c3 3 7 6 11 6c7 0 13-6 13-13l0-26l45 0l0 0c6 0 11-5 12-11l0 0l0-217z m-207 93l-242 0l0 0c-6 0-11 5-11 11l0 0l0 193l0 0c1 5 5 9 11 10l0 0l40 0l0 23c0 6 5 11 11 11c4 0 8-2 10-5l30-29l151 0c5 0 10-4 11-10l0 0l0-193l0 0c0-6-5-11-11-11z"/>
    </symbol>
  
    <symbol id="icon-graph-bar" viewBox="0 0 512 512">
      <path d="m236 308l-73 0c-4 0-7 4-7 8l0 112c0 4 3 8 7 8l73 0c4 0 8-4 8-8l0-112c0-5-4-8-8-8z m113-232l-73 0c-4 0-8 4-8 8l0 344c0 4 4 8 8 8l73 0c4 0 7-4 7-8l0-344c0-4-3-8-7-8z m113 105l-72 0c-5 0-8 3-8 7l0 240c0 4 3 8 8 8l72 0c4 0 8-4 8-8l0-240c0-4-4-7-8-7z m-340 0l-72 0c-4 0-8 3-8 7l0 240c0 4 4 8 8 8l72 0c5 0 8-4 8-8l0-240c0-4-3-7-8-7z"/>
    </symbol>
  
    <symbol id="icon-graph-horizontal" viewBox="0 0 512 512">
      <path d="m442 210l-372 0c-4 0-8 3-8 8l0 77c0 4 4 8 8 8l372 0c4 0 8-4 8-8l0-77c0-5-4-8-8-8z m-154-119l0 0l-218 0c-4 0-8 4-8 8l0 77c0 5 4 8 8 8l218 0l0 0c3-1 6-4 6-8l0-77c0-4-3-7-6-8z m49 237l-267 0c-4 0-8 3-8 8l0 77c0 4 4 8 8 8l267 0c5 0 8-4 8-8l0-77c0-5-3-8-8-8z"/>
    </symbol>
  
    <symbol id="icon-graph-pie" viewBox="0 0 512 512">
      <path d="m277 66c-3 0-6 3-6 7c0 0 0 0 0 1l0 0l0 161c0 3 3 6 6 6l161 0l0 0c1 0 1 0 1 0c4 0 7-3 7-6c-1-93-76-168-169-169z m130 208c0-4-3-7-7-7l-148 0c-4 0-7-3-7-7l0-147l0 0c0-1 0-1 0-1c0-4-3-7-6-7c-1 0-1 0-1 0l0 0c0 0-1 0-2 0c-94 0-170 76-170 171c0 94 76 170 170 170c95 0 171-76 171-170c0-1 0-2 0-2c0 0 0 0 0 0z"/>
    </symbol>
  
    <symbol id="icon-member-details" viewBox="0 0 512 512">
      <path d="m143 238c-7-14-11-31-11-47c0-9 2-18 4-28c1-4 3-9 5-13c-7-3-14-5-21-5c-28 0-51 26-51 59c0 22 11 42 27 52l-68 32c-5 2-7 7-7 12l0 54c0 8 5 13 11 13l40 0l0-56c0-17 10-32 24-39l53-24c-2-3-4-7-6-10z m165-60l174 0l0 0c0 0 0 0 0 0c5 0 10-4 10-9c0 0 0 0 0 0l0-33c0-5-5-9-10-9c0 0 0 0 0 0l0 0l-195 0c9 11 15 24 18 38c2 5 2 9 3 13z m184 162c0-5-5-9-10-9c0 0 0 0 0 0l0 0l-113 0l0 47c0 1 0 3-1 4l114 0l0 0c0 0 0 0 0 0c5 0 10-4 10-9z m-10-111c0 0 0 0 0 0l0 0l-180 0c-1 2-2 4-3 7c-2 4-4 8-6 11l53 25c4 2 7 5 10 8l126 0l0 0c0 0 0 0 0 0c5 0 10-4 10-9c0 0 0 0 0 0l0-33c0-5-5-9-10-9z m-148 66l-59-28l-25-12c11-7 20-17 26-30c5-10 7-22 7-34c0-7-1-13-2-20c-8-30-32-53-60-53c-29 0-52 22-60 52c-2 6-3 14-3 21c0 13 3 25 8 36c6 12 15 22 26 29l-24 11l-61 28c-6 3-9 9-9 16l0 67c0 9 6 16 14 16l217 0c8 0 14-7 14-16l0-67c0-7-3-13-9-16z"/>
    </symbol>
  
    <symbol id="icon-shuffle" viewBox="0 0 512 512">
      <path d="m99 319l-58 0c-1-1-2-1-3-1c-6 0-11 5-12 11l-1 0l0 56l1 0c1 5 5 9 10 10l0 0l87 0l0 0c9 0 17-5 21-12l54-54l-55-55z m386-161l-96-68c-2-2-4-2-6-1c-3 1-4 4-4 6l0 29l-76 0l0 0c-6 0-11 2-15 6l0 0l-54 54l54 54l38-37l53 0l0 30c0 3 1 5 4 6c2 1 5 1 7 0l95-69c1-1 2-3 2-5c0 0 0 0 0 0c0-2-1-4-2-5z m-1 186l-95-69c-2-1-5-1-7 0c-2 1-3 3-3 6l0 30l-53 0l-182-182c-4-7-12-12-21-12l0 0l-87 0l0 0c-5 1-9 5-11 10l0 0l0 56l0 0c1 6 7 11 13 11c1 0 2 0 3-1l58 0l189 189l0 0c4 4 9 6 14 6l0 0l77 0l0 29c0 2 1 5 3 6c2 1 5 1 7-1l95-68c2-1 3-3 3-5c0 0 0 0 0 0c0-2-1-4-3-5z"/>
    </symbol>
  
    <symbol id="icon-web" viewBox="0 0 512 512">
      <path d="m256 64c-106 0-192 86-192 192c0 106 86 192 192 192c106 0 192-86 192-192c0-106-86-192-192-192z m-139 217l30 0c5 38 21 73 45 101c-39-20-67-57-75-101z m30-50l-30 0c8-44 36-81 75-101c-24 28-40 63-45 101z m84 117c-17-18-28-41-33-67l33 0z m0-117l-33 0c5-26 16-49 33-67z m164 0l-30 0c-5-38-21-73-45-101c39 20 67 57 75 101z m-114 117l0-67l33 0c-5 26-16 49-33 67z m0-117l0-67c17 18 28 41 33 67z m39 151c24-28 40-62 45-101l30 0c-8 44-36 81-75 101z"/>
    </symbol>
  
    <symbol id="icon-sdn-case" viewBox="0 0 512 512">
      <path d="m366 320l0-55c0-3-1-5-3-6c-2-2-4-3-6-3l-64 0l0-64c0-3-1-5-3-7c-2-1-4-2-7-2l-54 0c-3 0-5 1-7 2c-2 2-3 4-3 7l0 64l-64 0c-2 0-4 1-6 3c-2 1-3 3-3 6l0 55c0 3 1 5 3 7c2 1 4 2 6 2l64 0l0 64c0 3 1 5 3 7c2 1 4 2 7 2l54 0c3 0 5-1 7-2c2-2 3-4 3-7l0-64l64 0c2 0 4-1 6-2c2-2 3-4 3-7z m-183-210l146 0l0-37l-146 0z m-110 0l0 365l-9 0c-18 0-33-6-45-18c-13-13-19-28-19-46l0-237c0-18 6-33 19-45c12-13 27-19 45-19z m338 0l0 365l-310 0l0-365l45 0l0-46c0-8 3-14 8-19c6-6 12-8 20-8l164 0c8 0 14 2 20 8c5 5 8 11 8 19l0 46z m101 64l0 237c0 18-6 33-19 46c-12 12-27 18-45 18l-9 0l0-365l9 0c18 0 33 6 45 19c13 12 19 27 19 45z"/>
    </symbol>
  
    <symbol id="icon-archive" viewBox="0 0 512 512">
      <path d="m311 238c0-5-2-10-6-13c-3-4-7-6-12-6l-74 0c-5 0-9 2-12 6c-4 3-6 8-6 13c0 5 2 9 6 13c3 3 7 5 12 5l74 0c5 0 9-2 12-5c4-4 6-8 6-13z m164-55l0 274c0 5-1 9-5 13c-4 4-8 5-13 5l-402 0c-5 0-9-1-13-5c-4-4-5-8-5-13l0-274c0-5 1-9 5-13c4-4 8-5 13-5l402 0c5 0 9 1 13 5c4 4 5 8 5 13z m19-128l0 73c0 5-2 9-6 13c-3 3-8 5-13 5l-438 0c-5 0-10-2-13-5c-4-4-6-8-6-13l0-73c0-5 2-9 6-13c3-4 8-5 13-5l438 0c5 0 10 1 13 5c4 4 6 8 6 13z"/>
    </symbol>
  
    <symbol id="icon-bell" viewBox="0 0 512 512">
      <path d="m261 485c0-3-2-5-5-5c-11 0-21-4-29-12c-8-8-12-18-12-29c0-3-2-5-5-5c-3 0-4 2-4 5c0 14 5 26 14 35c10 10 22 15 36 15c3 0 5-1 5-4z m233-83c0 10-4 19-11 26c-7 7-16 11-26 11l-128 0c0 20-7 37-21 52c-15 14-32 21-52 21c-20 0-37-7-52-21c-14-15-21-32-21-52l-128 0c-10 0-19-4-26-11c-7-7-11-16-11-26c36-30 64-68 82-113c19-45 28-93 28-143c0-31 9-56 27-75c19-18 44-29 76-33c-2-3-2-7-2-11c0-7 2-14 8-19c5-5 11-8 19-8c8 0 14 3 19 8c6 5 8 12 8 19c0 4 0 8-2 11c32 4 57 15 76 33c18 19 27 44 27 75c0 50 9 98 28 143c18 45 46 83 82 113z"/>
    </symbol>
  
    <symbol id="icon-bell-two" viewBox="0 0 512 512">
      <path d="m261 485c0-3-2-5-5-5c-11 0-21-4-29-12c-8-8-12-18-12-29c0-3-2-5-5-5c-3 0-4 2-4 5c0 14 5 26 14 35c10 10 22 15 36 15c3 0 5-1 5-4z m-190-83l370 0c-31-34-54-73-70-117c-16-44-24-90-24-139c0-48-30-73-91-73c-61 0-91 25-91 73c0 49-8 95-24 139c-16 44-39 83-70 117z m423 0c0 10-4 19-11 26c-7 7-16 11-26 11l-128 0c0 20-7 37-21 52c-15 14-32 21-52 21c-20 0-37-7-52-21c-14-15-21-32-21-52l-128 0c-10 0-19-4-26-11c-7-7-11-16-11-26c36-30 64-68 82-113c19-45 28-93 28-143c0-31 9-56 27-75c19-18 44-29 76-33c-2-3-2-7-2-11c0-7 2-14 8-19c5-5 11-8 19-8c8 0 14 3 19 8c6 5 8 12 8 19c0 4 0 8-2 11c32 4 57 15 76 33c18 19 27 44 27 75c0 50 9 98 28 143c18 45 46 83 82 113z"/>
    </symbol>
  
    <symbol id="icon-flag-1" viewBox="0 0 512 512">
      <path d="m91 73c0 14-6 24-18 32l0 361c0 3-1 5-3 7c-1 2-4 2-6 2l-18 0c-3 0-5 0-7-2c-2-2-2-4-2-7l0-361c-13-8-19-18-19-32c0-10 4-19 11-26c7-7 16-10 26-10c10 0 19 3 26 10c7 7 10 16 10 26z m421 18l0 218c0 5-1 9-4 11c-2 3-6 6-11 8c-41 22-76 33-105 33c-12 0-24-2-36-6c-11-4-22-9-31-14c-8-5-19-9-33-13c-13-4-26-7-40-7c-37 0-81 14-133 42c-3 2-6 3-9 3c-5 0-10-2-13-6c-4-3-6-8-6-13l0-212c0-6 3-11 9-15c4-3 12-7 23-13c45-22 85-34 120-34c21 0 40 3 57 8c18 6 39 14 63 26c7 3 15 5 25 5c10 0 21-2 34-6c12-4 22-8 31-13c9-5 17-10 25-14c8-4 13-6 16-6c5 0 9 2 13 6c3 3 5 7 5 12z"/>
    </symbol>
  
    <symbol id="icon-flag-2" viewBox="0 0 512 512">
      <path d="m475 299l0-176c-32 17-61 26-87 26c-16 0-29-3-41-10c-19-9-37-16-53-21c-16-6-33-8-51-8c-33 0-71 12-115 36l0 171c47-21 88-32 124-32c10 0 20 1 29 2c10 1 19 4 28 7c10 4 17 7 22 9c6 3 13 6 24 12l8 4c8 4 18 6 29 6c23 0 50-9 83-26z m-384-226c0 7-1 13-5 18c-3 6-7 10-13 14l0 361c0 3-1 5-2 7c-2 2-4 2-7 2l-18 0c-3 0-5 0-7-2c-2-2-2-4-2-7l0-361c-6-4-10-8-14-14c-3-5-5-11-5-18c0-10 4-19 11-26c7-7 16-10 26-10c10 0 19 3 26 10c7 7 10 16 10 26z m421 18l0 218c0 8-3 13-10 17c-2 1-4 2-5 2c-41 22-77 33-105 33c-17 0-32-3-45-10l-8-4c-13-6-22-10-29-13c-6-3-15-6-26-9c-10-2-21-4-32-4c-20 0-42 5-68 13c-25 8-47 18-65 29c-3 2-6 3-9 3c-3 0-6-1-9-3c-7-3-10-9-10-16l0-212c0-6 3-11 9-15c7-4 14-8 23-12c8-5 19-9 32-15c14-6 28-11 44-14c15-4 30-6 44-6c21 0 41 3 60 9c18 6 38 14 60 25c7 3 15 5 25 5c23 0 53-11 89-32c4-2 7-4 8-5c6-3 12-3 18 1c6 4 9 9 9 15z"/>
    </symbol>
  
    <symbol id="icon-flag-3" viewBox="0 0 512 512">
      <path d="m238 286l0-55c-35 3-71 14-110 33l0 53c39-18 76-29 110-31z m0-120l0-56c-33 2-70 14-110 36l0 54c41-21 78-32 110-34z m237 133l0-53c-44 22-81 29-109 20l0-64c-4-1-8-2-11-4c-1-1-5-2-10-5c-5-3-8-4-10-5c-1 0-4-2-9-4c-4-2-8-4-10-4c-1-1-4-2-9-4c-4-2-8-3-10-4c-3 0-6-1-10-2c-4-1-8-2-11-2c-4-1-8-1-12-1c-4-1-8-1-12-1c-5 0-9 0-14 1l0 63l5 0c20 0 38 3 55 9c17 5 36 13 57 23c3 2 7 3 11 4l0 54c8 3 16 5 26 5c23 0 50-9 83-26z m0-122l0-54c-32 17-61 26-87 26c-9 0-16-1-22-3l0 56c28 8 64 0 109-25z m-384-104c0 7-1 13-5 18c-3 6-7 10-13 14l0 361c0 3-1 5-2 7c-2 2-4 2-7 2l-18 0c-3 0-5 0-7-2c-2-2-2-4-2-7l0-361c-6-4-10-8-14-14c-3-5-5-11-5-18c0-10 4-19 11-26c7-7 16-10 26-10c10 0 19 3 26 10c7 7 10 16 10 26z m421 18l0 218c0 8-3 13-10 17c-2 1-4 2-5 2c-41 22-77 33-105 33c-17 0-32-3-45-10l-8-4c-13-6-22-10-29-13c-6-3-15-6-26-9c-10-2-21-4-32-4c-20 0-42 5-68 13c-25 8-47 18-65 29c-3 2-6 3-9 3c-3 0-6-1-9-3c-7-3-10-9-10-16l0-212c0-6 3-11 9-15c7-4 14-8 23-12c8-5 19-9 32-15c14-6 28-11 44-14c15-4 30-6 44-6c21 0 41 3 60 9c18 6 38 14 60 25c7 3 15 5 25 5c23 0 53-11 89-32c4-2 7-4 8-5c6-3 12-3 18 1c6 4 9 9 9 15z"/>
    </symbol>
  
    <symbol id="icon-home" viewBox="0 0 512 512">
      <path d="m421 283l0 138c0 5-2 9-6 12c-3 4-8 6-13 6l-109 0l0-110l-74 0l0 110l-109 0c-5 0-10-2-13-6c-4-3-6-7-6-12l0-138c0 0 0 0 1 0c0-1 0-1 0-1l164-136l164 136c0 0 1 1 1 1z m63-19l-17 21c-2 2-4 3-6 3l-1 0c-3 0-5-1-6-2l-198-165l-198 165c-2 2-4 2-7 2c-2 0-4-1-6-3l-17-21c-2-2-2-4-2-7c0-3 1-5 3-6l205-171c6-5 14-8 22-8c8 0 16 3 22 8l69 58l0-56c0-2 1-5 3-6c2-2 4-3 7-3l54 0c3 0 5 1 7 3c2 1 3 4 3 6l0 117l62 52c2 1 3 3 3 6c0 3 0 5-2 7z"/>
    </symbol>
  
    <symbol id="icon-law" viewBox="0 0 512 512">
      <path d="m257 96c17 0 31-14 31-31 1-18-14-33-33-33-17 1-30 14-31 31 0 19 15 34 33 33z m232 192l-9 0-63-123c9-1 18-4 26-8 12-5 14-21 5-31l0 0c-6-6-14-8-22-4-7 3-17 6-26 6-28 0-41-32-144-32-103 0-115 32-143 32-10 0-20-3-27-6-7-3-16-2-21 4l-1 0c-9 10-6 25 6 31 8 4 17 7 26 8l-64 123-9 0c-4 0-7 4-6 8 5 32 46 56 95 56 50 0 90-24 96-56 0-4-3-8-7-8l-9 0-63-122c41-4 63-25 95-25l0 243c-17 0-32 15-32 32l-35 0c-14 0-29 15-29 32l256 0c0-17-14-32-35-32l-29 0c0-17-14-32-32-32l0-243c32 0 54 21 96 25l-64 122-9 0c-4 0-7 4-6 8 5 32 46 56 95 56 50 0 90-24 96-56 0-4-3-8-7-8z m-329 0l-96 0 48-90z m192 0l48-90 48 90z"/>
    </symbol>
  
    <symbol id="icon-pulse" viewBox="0 0 512 512">
      <path d="m400 256l-86-83-71 99-35-221-100 205-76 0 0 64 115 0 29-58 29 173 115-163 51 48 109 0 0-64z"/>
    </symbol>
  
    <symbol id="icon-price-tag" viewBox="0 0 512 512">
      <path d="m417 339c0-1 0-1 0-1l0 0l-138-239l0 0c-1-1-3-3-5-4l0 0l-56-32l0 0c-3-2-6-2-9-1l-1 0l-1 1c0 0 0 0 0 0c0 0 0 0 0 0l-108 63c-4 2-5 5-5 9l-1 0l0 65l1 0c-1 2 0 4 1 6c0 0 0 0 0 0l137 238c1 1 1 1 1 1c3 5 9 7 14 4l0 0l166-96l0 0c5-3 7-9 4-14z m-231-189c-9 6-21 3-27-7c-5-9-2-21 7-27c10-5 22-2 27 7c6 10 3 22-7 27z"/>
    </symbol>
  
    <symbol id="icon-pricetag-multiple" viewBox="0 0 512 512">
      <path d="m452 348c0 0 0 0 0-1l0 0l-138-238l0 0c-1-2-3-3-5-4l0 0l-41-24l46 79l103 179l0 0c0 0 0 0 0 0c3 5 2 12-3 15l0 0l-153 88l6 12c0 0 1 0 1 1c3 5 9 6 14 4l0 0l166-96l0 0c5-3 7-10 4-15z m-74-4c5-3 7-10 4-15c0 0 0 0 0 0l0 0l-138-239l0 0c-1-2-3-3-5-4l0 0l-56-33l0 1c-3-2-6-2-9-1l0 0l-2 0c0 1 0 1 0 1c0 0 0 0 0 0l-108 62c-3 2-5 6-5 9l0 0l0 65l0 0c-1 2 0 5 1 7c0 0 0 0 0 0l138 238c0 0 0 0 0 1c3 5 9 6 14 4l0 0l166-96z m-227-203c-9 5-21 2-27-7c-5-10-2-22 7-27c10-6 22-3 28 7c5 9 2 21-8 27z"/>
    </symbol>
  
    <symbol id="icon-shield" viewBox="0 0 512 512">
      <path d="m256 54l0-1l-172 100l0 0l0 118l0 0c2 97 77 178 172 188c96-10 170-91 172-188l0-118l0 0z m0 353l0-142l-121 0l0-82l121-70l0 152l121 0l0 6l0 0c-2 69-54 127-121 136z"/>
    </symbol>
  
    <symbol id="icon-torso" viewBox="0 0 512 512">
      <path d="m410 309l-80-38l-34-16c15-9 27-24 35-41c6-14 10-29 10-46c0-9-1-18-4-27c-10-41-42-72-81-72c-38 0-70 30-81 70c-2 9-4 19-4 29c0 18 4 34 11 49c8 16 20 30 35 39l-32 15l-83 38c-7 4-12 12-12 21l0 91c0 12 8 22 19 22l294 0c11 0 19-10 19-22l0-91c0-9-4-17-12-21z"/>
    </symbol>
  
    <symbol id="icon-torsos-all" viewBox="0 0 512 512">
      <path d="m492 295l-83-40c20-12 33-36 33-63c0-40-28-72-62-72c-12 0-23 4-32 11c6 14 9 29 9 46c0 24-7 48-20 67c4 5 9 9 15 12l0 0l53 25c15 8 25 24 25 41l0 70l57 0c7 0 14-7 14-16l0-66c0-7-4-13-9-15z m-330-40c4-3 8-6 12-10c-13-19-21-43-21-68c0-17 4-33 10-47c-10-6-20-10-31-10c-34 0-62 32-62 72c0 28 14 52 34 64l-84 39c-5 2-9 8-9 15l0 66c0 9 7 16 14 16l55 0l0-70c0-17 10-34 26-41z m232 49l-72-34l-31-15c14-8 25-21 32-37c5-12 9-26 9-41c0-9-2-17-4-24c-9-38-38-65-73-65c-34 0-63 26-73 63c-2 8-3 17-3 26c0 16 3 31 10 44c7 14 18 27 31 35l-29 13l-75 35c-6 3-10 10-10 18l0 82c0 11 7 20 17 20l264 0c10 0 18-9 18-20l0-82c0-8-5-15-11-18z"/>
    </symbol>
  
    <symbol id="icon-widget" viewBox="0 0 512 512">
      <path d="m453 222l-52-5c-4-12-9-25-15-36l33-41c4-4 4-11 0-15l-32-32c-3-2-5-3-8-3c-3 0-5 1-7 3l-41 33c-12-6-24-11-36-15l-5-52c-1-6-6-10-11-10l-46 0c-5 0-10 4-11 10l-5 52c-12 4-24 9-36 15l-41-33c-2-2-4-3-7-3c-3 0-5 1-8 3l-32 32c-4 4-4 11 0 15l33 41c-6 11-11 24-15 36l-52 5c-6 1-10 6-10 11l0 46c0 5 4 10 10 11l52 5c4 12 9 24 15 36l-33 41c-4 4-4 11 0 15l32 32c3 2 5 3 8 3c3 0 5-1 7-3l41-33c12 6 24 11 36 15l5 52c1 6 6 10 11 10l46 0c5 0 10-4 11-10l5-52c12-4 24-9 36-15l41 33c2 2 4 3 7 3c3 0 5-1 8-3l32-32c4-4 4-11 0-15l-33-41c6-12 11-24 15-36l52-5c6-1 10-6 10-11l0-46c0-5-4-10-10-11z m-197 95c-34 0-61-27-61-61c0-34 27-61 61-61c34 0 61 27 61 61c0 34-27 61-61 61z"/>
    </symbol>
  
    <symbol id="icon-columns" viewBox="0 0 512 512">
      <path d="m64 439l174 0l0-329l-183 0l0 320c0 2 1 4 3 6c1 2 4 3 6 3z m393-9l0-320l-183 0l0 329l174 0c2 0 5-1 6-3c2-2 3-4 3-6z m37-348l0 348c0 12-5 23-14 32c-9 9-19 13-32 13l-384 0c-13 0-23-4-32-13c-9-9-14-20-14-32l0-348c0-12 5-23 14-32c9-9 19-13 32-13l384 0c13 0 23 4 32 13c9 9 14 20 14 32z"/>
    </symbol>
  
    <symbol id="icon-eye-slash-close" viewBox="0 0 512 512">
      <path d="m159 381l22-40c-17-12-30-27-39-45c-9-19-14-38-14-58c0-23 6-45 17-65c-43 23-79 56-108 101c31 49 72 85 122 107z m111-216c0-4-2-7-4-10c-3-3-6-4-10-4c-24 0-44 8-61 25c-17 17-26 38-26 62c0 4 1 7 4 9c3 3 6 4 10 4c4 0 7-1 10-4c2-2 4-5 4-9c0-17 5-31 17-42c12-12 26-18 42-18c4 0 7-1 10-4c2-2 4-6 4-9z m103-55c0 1 0 2 0 3c-20 35-50 89-90 161c-40 72-70 126-90 162l-14 26c-2 3-5 4-8 4c-2 0-15-6-38-20c-3-2-5-4-5-8c0-2 4-10 13-25c-28-12-53-28-76-49c-23-21-43-44-59-70c-4-6-6-12-6-20c0-7 2-14 6-19c29-45 65-81 108-106c44-26 91-39 142-39c17 0 34 1 51 5l16-28c2-3 4-5 8-5c1 0 3 1 5 2c2 1 5 3 9 4c3 2 6 4 9 6c3 1 6 3 9 5c3 2 5 3 6 3c3 2 4 5 4 8z m11 128c0 26-8 50-23 72c-15 22-35 38-59 47l80-143c1 8 2 16 2 24z m128 36c0 7-2 14-6 20c-7 12-18 26-31 41c-28 33-62 59-99 77c-38 18-78 27-120 27l21-38c41-3 78-16 112-39c35-23 63-52 86-88c-21-34-48-62-80-84l18-32c18 12 35 27 52 44c17 17 30 34 41 53c4 6 6 13 6 19z"/>
    </symbol>
  
    <symbol id="icon-eye" viewBox="0 0 512 512">
      <path d="m475 274c-29-45-65-78-108-101c11 20 17 42 17 65c0 35-13 65-38 90c-25 25-55 38-90 38c-35 0-65-13-90-38c-25-25-38-55-38-90c0-23 6-45 17-65c-43 23-79 56-108 101c25 39 57 70 95 94c38 23 79 34 124 34c45 0 86-11 124-34c38-24 70-55 95-94z m-205-109c0-4-2-7-4-10c-3-3-6-4-10-4c-24 0-44 8-61 25c-17 17-26 38-26 62c0 4 1 7 4 9c3 3 6 4 10 4c4 0 7-1 10-4c2-2 4-5 4-9c0-17 5-31 17-42c12-12 26-18 42-18c4 0 7-1 10-4c2-2 4-6 4-9z m242 109c0 7-2 13-6 20c-26 44-62 79-107 105c-45 27-93 40-143 40c-50 0-98-13-143-40c-45-26-81-61-107-105c-4-7-6-13-6-20c0-6 2-13 6-19c26-44 62-79 107-106c45-26 93-39 143-39c50 0 98 13 143 39c45 27 81 62 107 106c4 6 6 13 6 19z"/>
    </symbol>
  
    <symbol id="icon-globe-world" viewBox="0 0 512 512">
      <path d="m256 37c40 0 77 9 110 29c34 20 60 46 80 80c20 33 29 70 29 110c0 40-9 77-29 110c-20 34-46 60-80 80c-33 20-70 29-110 29c-40 0-77-9-110-29c-34-20-60-46-80-80c-20-33-29-70-29-110c0-40 9-77 29-110c20-34 46-60 80-80c33-20 70-29 110-29z m78 148c0 1-1 2-2 3c-2 2-3 3-4 3c0 0 1-1 1-2c0-1 1-2 1-3c1-1 1-2 1-2c2-1 4-2 7-4c2-1 7-2 15-3c6-2 11-1 14 3c0-1 1-2 3-4c2-2 3-3 4-3c1-1 2-1 4-2c3 0 4-1 5-2l0-6c-2 0-4-1-5-2c-1-2-2-4-2-6c0 0 0 1-1 2c0-1-1-2-2-2c-1 0-2 0-3 0c-1 1-2 1-3 0c-1 0-3-1-4-2c-1-1-2-2-2-4c-1-3-1-4-1-5c-1-1-2-2-3-3c-1-1-2-2-3-3c0 0 0-1 0-1c-1-1-1-2-1-2c-1-1-1-1-1-2c-1 0-1 0-2 0c-1 0-1 0-2 1c-1 1-1 2-2 3c-1 1-1 1-1 1c-1 0-2 0-2 0c-1 0-1 0-1 0c-1 0-1 1-2 1c0 0-1 1-1 1c-1 0-2 1-3 1c-1 0-1 0-2 0c3-1 3-2 0-3c-2 0-4-1-5-1c2 0 3-1 2-3c0-2-1-3-2-4l1 0c0-1-1-2-2-2c-2-1-3-2-5-3c-2-1-3-1-4-2c-1-1-5-1-10-2c-5-1-8-1-9 0c-1 1-1 2-1 3c0 0 0 2 1 4c1 1 1 3 1 3c0 1 0 3-2 4c-1 1-2 2-2 3c0 2 2 3 4 5c3 1 4 3 3 6c0 1-2 3-4 4c-3 2-4 3-5 4c-1 1-1 3 0 5c0 2 1 4 3 5c0 0 0 1 0 1c0 0 0 1-1 1c0 1-1 1-1 1c-1 1-2 1-2 1l-1 1c-2 1-4 0-6-2c-2-2-3-4-4-7c-1-5-3-8-4-9c-5-1-8-1-9 1c-1-3-5-5-11-8c-5-2-11-2-17-1c1 0 1-2 0-4c-1-3-3-4-5-4c0-1 1-3 1-5c0-2 0-3 0-4c1-2 2-4 3-6c1 0 1-1 2-3c2-1 2-2 3-3c1-2 1-2 0-2c7 1 12 0 15-3c1-1 2-3 3-5c1-2 2-4 3-5c2-1 3-2 4-2c1 1 2 1 4 2c2 1 3 1 4 1c3 1 4 0 5-3c0-2-1-4-3-5c3 0 3-2 1-5c-1-2-1-2-2-3c-2-1-5 0-8 2c-1 0-1 1 1 2c0 0-1 1-3 3c-1 2-3 4-5 5c-1 1-3 1-4-2c0 0-1-1-2-3c-1-3-1-4-2-4c-2 0-3 1-5 4c1-2 0-3-3-4c-3-2-5-2-7-3c4-2 3-4-2-7c-2-1-4-2-6-2c-3 0-5 0-6 1c-1 2-1 3-1 4c0 1 0 1 1 2c1 1 2 1 3 2c1 0 2 0 3 1c2 0 2 0 3 1c3 1 3 3 2 4c0 0-1 0-2 1c-2 0-3 0-4 1c-1 0-1 1-1 1c-1 1-1 2 0 4c0 2 0 3-1 4c-1-1-2-3-2-5c-1-2-2-4-2-5c1 2-1 3-8 2l-2 0c-1 0-3 0-5 0c-2 1-4 1-6 1c-1-1-3-1-4-3c0-1 0-3 0-5c0-1 1-1 1-1c0-1-1-1-3-3c-1-1-2-2-3-2c-8 3-17 7-26 12c1 0 2 0 3-1c1 0 2-1 4-2c1 0 2-1 3-1c6-3 10-3 12-2l1-2c3 3 5 6 6 8c-2-1-4-1-9-1c-4 1-6 3-6 4c1 2 2 4 1 5c0-1-2-2-3-3c-1-1-3-2-4-3c-1-1-3-1-4-2c-3 0-6 1-7 1c-28 15-50 36-67 63c1 1 3 2 4 2c0 1 1 1 1 3c0 2 0 3 1 3c0 1 1 0 3-1c2 2 2 4 1 6c0 0 4 2 12 7c4 4 6 6 6 6c1 3 0 4-2 6c-1-1-1-2-3-3c-2-1-2-2-3-1c0 1 0 3 1 5c0 3 1 4 3 4c-2 0-3 1-3 4c-1 3-1 7-1 10c0 4 0 6 0 7l0 0c0 3 0 6 2 10c2 5 4 6 6 6c-2 0 0 5 6 12c1 2 2 3 2 3c1 0 2 1 4 2c1 1 3 2 4 3c1 1 2 2 3 3c0 1 1 3 3 6c1 3 2 6 4 7c-1 1 0 3 2 6c2 2 3 4 3 6c0 0 0 0 0 0c-1 1-1 1-1 1c0 1 2 2 4 4c3 1 4 2 5 3c0 1 0 2 0 3c0 2 1 3 1 3c1 1 1 1 2 1c1-4-1-10-6-18c-3-4-5-7-5-8c-1-1-1-2-2-4c0-2-1-4-1-5c0 0 1 1 2 1c0 0 1 0 2 1c1 0 2 1 2 1c1 0 1 1 1 1c-1 1-1 3 0 5c1 2 2 4 4 5c1 2 3 3 5 6c1 2 3 3 3 3c1 1 2 3 4 6c2 2 2 4 0 4c2 0 4 1 6 3c2 1 3 3 5 5c1 2 1 4 2 8c0 3 1 5 1 7c1 1 1 2 3 3c1 2 2 3 3 3l5 2c0 0 1 1 4 2c1 1 2 2 5 3c2 2 4 3 6 4c2 0 3 1 5 1c1 0 2 0 4-1c1 0 3-1 4-1c2 0 5 1 8 4c3 4 5 6 6 6c7 4 12 5 16 4c-1 0-1 0 0 2c0 1 1 2 2 4c1 2 2 3 3 4c0 1 1 2 1 3c1 1 3 2 5 4c3 2 4 3 5 4c2 0 2-1 2-2c0 1 1 3 2 5c2 3 4 4 6 3c2 0 4-3 4-9c-6 3-11 1-14-5c0 0-1-1-1-2c-1 0-1-1-1-2c-1-1-1-2-1-2c0-1 0-2 0-3c0 0 1 0 1 0c2 0 3-1 3-1c0-1 0-2 0-4c-1-2-1-3-1-4c-1-1-2-3-4-5c-1-3-3-4-3-5c-1 2-2 3-5 3c-2-1-3-1-4-3c0 0 0 1-1 2c0 0 0 1 0 1c-2 0-4 0-4 0c0 0 0-2 0-5c1-3 1-5 1-6c1-1 1-2 2-4c1-1 2-3 2-4c1-1 1-2 1-3c0-2 0-2-1-3c-1-1-3-1-5-1c-4 0-6 2-7 6c-1 0-1 1-1 3c-1 1-1 2-2 3c0 1-1 2-2 2c-2 1-4 1-7 1c-3 0-6-1-7-2c-2-1-5-4-6-8c-2-4-3-8-3-11c0-1 0-4 1-7c0-3 0-6 0-7c1-2 0-4-1-7c0-1 1-2 2-3c2-1 3-2 3-3c1 0 1 0 2 0c0-1 0-1 1 0c0 0 1 0 1-1c0 0 1-1 1-2c0 0-1 0-1 0c-1-1-1-1-1-1c1 0 4 0 8-1c4-1 6 0 8 1c2 2 5 2 6-1c0 0 0-1-1-3c0-1 0-2 0-3c1 5 4 6 8 2c1 1 2 1 5 2c2 0 4 0 5 1c0 0 1 1 2 2c0 0 1 1 1 1c1 0 1 0 2 0c0-1 1-1 2-2c2 3 3 5 4 7c2 7 3 12 5 12c1 1 2 1 3 1c1 0 1-1 1-3c1-1 1-3 0-4c0-1 0-2 0-3l0-3l0-5l-1-2c-2-1-4-2-5-4c-1-1 0-3 1-5c1-2 2-3 4-5c0 0 1-1 2-1c1-1 3-1 5-2c1-1 2-2 3-2c4-4 6-7 4-10c2 0 3-1 4-3c-1 0-1 0-2-1c-1 0-1-1-2-1c-1-1-1-1-1-1c1-1 2-2 0-4c1-1 2-2 2-3c1-2 2-3 3-3c1 2 3 2 6 0c1-1 1-3 0-4c1-2 3-3 6-3c3-1 4-2 5-3c1 0 2 0 2-1c0 0 1-1 1-3c0-2 0-3 0-3c1-1 3-2 5-3c2-1 3-1 3-1l5-4c1 0 1-1 0-1c4 1 7 0 9-3c2-2 1-4-2-6c1-1 1-2 0-2c-2-1-3-1-5-2c1 0 2 0 4 0c1 0 2 0 3 0c2-2 2-4-2-5c-4-1-8 0-13 3z m-46 251c39-7 72-25 100-54c-1-1-2-1-4-1c-1-1-3-1-3-1c-4-2-6-2-7-3c0-1 0-2-1-3c0-1-1-2-2-3c-1 0-2-1-4-2c-1-1-2-2-3-2c0-1-1-1-2-2c-1-1-1-1-2-1c0-1-1-1-2-2c-1 0-2 0-2 0c-1 0-2 0-3 0l-1 0c-1 0-1 1-2 1c0 0-1 1-1 1c-1 0-1 0-1 1c0 0 0 0 0 0c-4-3-8-5-11-6c-1 0-2-1-3-1c-1-1-2-2-3-2c-1-1-2-1-3-1c-1 0-2 1-3 2c-1 1-1 3-2 4c0 2 0 4 0 4c-1-1-1-2 0-5c1-2 1-4 0-5c0-1-1-2-3-1c-1 0-2 0-3 1c-1 0-2 1-3 2c-2 1-2 2-3 2c0 0-1 1-2 2c-2 1-2 1-3 2c0 1-1 2-1 3c-1 2-1 3-2 3c0 0-1-1-3-1c-2-1-3-1-3-2c1 2 1 5 1 10c1 5 1 8 2 11c1 6 0 10-4 14c-5 4-8 8-8 11c-1 4 0 7 3 7c0 2 0 4-2 6c-1 3-2 5-2 6c0 2 0 3 1 5z"/>
    </symbol>
  
    <symbol id="icon-legal" viewBox="0 0 512 512">
      <path d="m506 439c0 10-4 19-11 26l-30 30c-8 7-16 11-26 11c-10 0-19-4-26-11l-104-104c-7-6-10-15-10-25c0-10 4-20 12-28l-73-73l-36 36c-3 3-6 4-10 4c-4 0-7-1-10-4c1 1 2 2 4 4c2 1 3 3 3 3c1 1 2 2 3 4c2 1 3 2 3 3c1 1 1 3 2 4c1 2 1 3 1 5c1 2 1 3 1 5c0 7-3 14-8 20c-1 0-2 2-5 5c-2 3-4 5-5 6c-1 1-3 2-6 4c-2 2-4 4-6 5c-2 1-4 1-6 2c-3 1-5 2-8 2c-7 0-14-3-19-8l-117-117c-5-5-8-12-8-19c0-3 1-5 2-8c1-2 1-4 2-6c1-2 3-4 5-6c2-3 3-5 4-6c1-1 3-3 6-5c3-3 5-4 5-5c6-5 13-8 20-8c2 0 3 0 5 1c2 0 3 0 5 1c1 1 3 1 4 2c1 0 2 1 3 3c2 1 3 2 4 3c0 0 2 1 3 3c2 2 3 3 4 4c-3-3-4-6-4-10c0-4 1-7 4-10l99-99c3-3 6-4 10-4c4 0 7 1 10 4c-1-1-2-2-4-4c-2-1-3-3-3-3c-1-1-2-2-3-4c-2-1-3-2-3-3c-1-1-1-3-2-4c-1-2-1-3-1-5c-1-2-1-3-1-5c0-7 3-14 8-20c1 0 2-2 5-5c2-3 4-5 5-6c1-1 3-2 6-4c2-2 4-4 6-5c2-1 4-1 6-2c3-1 5-2 8-2c7 0 14 3 19 8l117 117c5 5 8 12 8 19c0 3-1 5-2 8c-1 2-1 4-2 6c-1 2-3 4-5 6c-2 3-3 5-4 6c-1 1-3 3-6 5c-3 3-5 4-5 5c-6 5-13 8-20 8c-2 0-3 0-5-1c-2 0-3 0-5-1c-1-1-3-1-4-2c-1 0-2-1-3-3c-2-1-3-2-4-3c0 0-2-1-3-3c-2-2-3-3-4-4c3 3 4 6 4 10c0 4-1 7-4 10l-36 36l73 73c8-8 18-12 28-12c10 0 18 3 26 10l103 104c7 7 11 16 11 26z"/>
    </symbol>
  
    <symbol id="icon-paper-clip" viewBox="0 0 512 512">
      <path d="m456 396c0 22-8 41-23 56c-15 15-33 22-56 22c-25 0-48-9-67-28l-222-222c-21-22-32-48-32-77c0-31 10-56 31-78c21-21 47-31 77-31c30 0 56 10 78 32l173 173c2 2 3 4 3 6c0 3-3 8-9 14c-6 6-10 8-13 8c-2 0-5-1-7-2l-173-174c-15-15-32-22-51-22c-21 0-38 7-52 22c-13 14-20 31-20 51c0 20 7 38 21 52l222 222c12 12 26 18 41 18c13 0 23-4 31-12c8-8 12-18 12-30c0-16-6-30-18-42l-166-166c-5-4-11-7-17-7c-6 0-11 2-14 6c-4 3-6 8-6 14c0 6 3 11 8 16l117 118c2 1 3 4 3 6c0 3-3 7-9 13c-6 6-11 9-14 9c-2 0-4-1-6-3l-117-117c-12-11-18-26-18-42c0-16 5-29 16-40c11-11 24-16 40-16c17 0 31 6 42 18l166 166c19 18 29 41 29 67z"/>
    </symbol>
  
    <symbol id="icon-pencil" viewBox="0 0 512 512">
      <path d="m140 439l26-26l-67-67l-26 26l0 30l37 0l0 37z m150-265c0-4-2-7-7-7c-1 0-3 1-4 2l-155 155c-2 2-2 3-2 5c0 4 2 6 6 6c2 0 4 0 5-2l155-154c1-2 2-3 2-5z m-16-55l119 119l-238 237l-118 0l0-118z m195 27c0 10-3 19-10 26l-48 47l-118-118l47-48c7-7 15-10 26-10c10 0 18 3 26 10l67 67c7 8 10 16 10 26z"/>
    </symbol>
  
    <symbol id="icon-stackoverflow" viewBox="0 0 512 512">
      <path d="m320 400l0 43l-202 1l0-43z m69-99l0 201l0 10l0 0l-324 0l-10 0l0 0l0-211l34 0l0 177l266 0l0-177z m-265 26l201 18l-4 43l-201-19z m19-91l195 53l-11 41l-195-52z m47-99l174 102l-22 38l-174-103z m103-95l113 167l-35 24l-114-166z m129-42l35 199l-43 8l-35-200z"/>
    </symbol>
  
    <symbol id="icon-newspaper" viewBox="0 0 512 512">
      <path d="m128 341l256 0l0-128l-256 0z m21-106l214 0l0 85l-214 0z m-21-64l256 0l0 21l-256 0z m0 192l107 0l0 21l-107 0z m0 42l64 0l0 22l-64 0z m86 2l21 0l0 21l-21 0z m63-44l107 0l0 21l-107 0z m0 42l107 0l0 22l-107 0z m150-320l0-20c0-24-22-44-74-44l-256 0c-36 0-54 30-54 66l0 362c0 36 18 63 54 63l298 0c36 0 32 0 74 0l0-427z m0 384l-330 0c-12 0-12-8-12-20l0-362c0-12 0-23 12-23l287 0l0 21l-256 0l0 43l299 0z"/>
    </symbol>
  
    <symbol id="icon-list" viewBox="0 0 512 512">
      <path d="m192 64l0 405l256 0l0-170l64 0l0-235z m213 363l-170 0l0-64l170 0l0 64z m0-86l-170 0l0-64l170 0l0 64z m64-85l-234 0l0-64l234 0z m0-85l-234 0l0-64l234 0z m-469 298l149 0l0-405l-149 0z m43-362l64 0l0 64l-64 0z m0 85l64 0l0 64l-64 0z m0 85l64 0l0 64l-64 0z m0 86l64 0l0 64l-64 0z"/>
    </symbol>
  
    <symbol id="icon-lightbulb" viewBox="0 0 512 512">
      <path d="m411 97l0 0l0 0c3-3 3-8 0-11l-10-10c-3-3-8-3-11 0l0 0l-45 45c-3 3-3 7 0 10l11 11l0 0c2 3 7 3 10 0z m-162 2l0 0l14 0l0 0c4 0 8-3 8-7l0 0l0-64c0-5-3-8-8-8l0 0l-14 0l0 0c-5 0-8 3-8 8l0 64l0 0c0 4 4 7 8 7z m220 106c0-4-3-7-7-8l0 0l-64 0c-4 0-8 4-8 8l0 15c0 4 4 7 8 7l64 0l0 0c4 0 7-3 7-7z m-213-81c-60 0-109 49-109 109c0 23 8 45 20 63l0 0c17 25 27 59 27 96c2 2 4 4 7 4c0 0 0 0 1 0l0 0l108 0l0 0c0 0 1 0 1 0c3 0 5-2 7-5c0-38 12-73 29-99c11-17 18-37 18-59c0-60-49-109-109-109z m55 336c0 0-1 0-1 0l0 0l-108 0l0 0c-1 0-1 0-1 0c-4 0-8 3-8 7l0 17c0 5 4 8 8 8c0 0 0 0 1 0l0 0l108 0l0 0c0 0 1 0 1 0c4 0 7-3 7-8l0-17c0-4-3-7-7-7z m0-49c0 0-1 0-1 0l0 0l-108 0l0 0c-1 0-1 0-1 0c-4 0-7 4-8 8c0 0 0 0 0 0l0 17c0 4 4 8 8 8c0 0 0 0 1-1l0 1l108 0l0-1c0 1 1 1 1 1c4 0 7-4 7-8l0-17c0-4-3-8-7-8z m-197-208l0 0l-64 0c-4 0-7 3-7 8l0 14c0 5 3 8 7 8l64 0l0 0c4 0 8-4 8-8l0-14c0-4-4-8-8-8z m-11-109l46 46l0 0c3 2 7 2 10-1l0 0l11-10c2-3 2-8 0-10l0 0l-46-46c-2-3-7-3-10 0l-11 11c-2 3-2 7 0 10z"/>
    </symbol>
  
    <symbol id="icon-shield-1" viewBox="0 0 512 512">
      <path d="m384 274l0-183l-128 0l0 325c23-12 43-25 61-39c45-35 67-69 67-103z m55-219l0 219c0 17-3 33-10 49c-6 16-14 30-23 43c-10 12-21 24-34 36c-13 12-25 22-36 30c-11 8-23 15-35 22c-12 7-20 12-25 14c-5 2-10 4-13 6c-2 1-4 1-7 1c-3 0-5 0-7-1c-3-2-8-4-13-6c-5-2-13-7-25-14c-12-7-24-14-35-22c-11-8-23-18-36-30c-13-12-24-24-34-36c-9-13-17-27-23-43c-7-16-10-32-10-49l0-219c0-5 2-9 6-13c3-4 7-5 12-5l330 0c5 0 9 1 12 5c4 4 6 8 6 13z"/>
    </symbol>
  
</svg>
